<?xml version="1.0" encoding="utf-8"?>
<!-- Generator: Adobe Illustrator 23.0.6, SVG Export Plug-In . SVG Version: 6.00 Build 0)  -->
<svg version="1.1" id="Calque_1" xmlns="http://www.w3.org/2000/svg" xmlns:xlink="http://www.w3.org/1999/xlink" x="0px" y="0px"
	 viewBox="0 0 375.9 333" style="enable-background:new 0 0 375.9 333;" xml:space="preserve">
<style type="text/css">
	.st0{clip-path:url(#SVGID_2_);}
	.st1{fill:none;}
	.st2{fill-rule:evenodd;clip-rule:evenodd;}
</style>
<g>
	<defs>
		<rect id="SVGID_1_" y="0" width="247" height="333"/>
	</defs>
	<clipPath id="SVGID_2_">
		<use xlink:href="#SVGID_1_"  style="overflow:visible;"/>
	</clipPath>
	<g class="st0">
		<path class="st1" d="M228.5,179.3c-3,0.3-6,0.6-9.1,0.9c-14.4,1.1-28.9,3.4-43.2,4.8c-0.4-0.6-1.1-0.5-1.5-0.1
			c-1.4-0.1-3-1.2-4.3-0.1c0,0-0.1,0-0.1,0c-2.3-4.4-3.9-9.2-5.5-13.9c-1-2.9-2.3-5.7-4.8-7.7c-4.2-2.9-13.8-8.8-18.7-8.6
			c-0.1-0.9-0.5-1.8-1.2-2.4c1.5-2.5-4.5-4.2-4.9-3.9c0.3-8.5-3.7-15.8-12.5-17.5c-7.9-1.6-19.1-1.9-23.3,6.3
			c-0.5-0.1-5.2-0.1-5.7,0c-0.7-0.9-8.6,7.7-5.4,10.7c-28.8,12.7-45.2,11.2-53.1,47c-1.1,3.4-1.2,7-2.3,10.3
			c-4,9.5-7.3,19.5-8.1,29.8c-2,0.5-2.2,4,0.1,4.5c0.9,0.2,1.6,0.5,2.2,1c-0.5,8.4,1.5,27.7,2.8,27.6c2.6,8.3,14.3,10.7,22.6,7.8
			c-1.4,2.7,0,4.4,0,5.8c29.8,1.1,62.3,0.5,92,2c3.8-0.1,7.8,0.9,11.6,0.4c2.3-0.5,2.3-4.1,0-4.6l10.1-2.2c-0.2-0.1,4.2-3,7.5-8.5
			c3.1-6.1,1-13.5,2.4-20.2c11-0.9,22.1-1.3,33-3.1c1.5,4.4,7.9-0.9,9.9-3c0,0,0,0,0,0c1-0.3,1.8-1.2,1.8-2.3c0.7-1,0.8-2.4,0.2-3.3
			c3-17.5,7.7-35.4,9.3-53.1c0.6-0.1,1.1-0.4,1.6-0.8l0,0c0.8-0.9,1-2.4-0.4-3.2C230.6,179,229.7,179.2,228.5,179.3z"/>
		<path class="st2" d="M100,135.3c0.9-2.3,3.9-1.4,3.6,1c-0.2,1.4-1,2.9-1.7,4.2c-0.6,1-1.2,2-2.1,2.8c1.6,1.5,3.2,2.9,4.8,4.2
			c1.8,1.5,3.7,2.8,5.7,4c1.7,1.1,3.5,2,5.2,3.3c1.5,1.1,2.9,2.5,3.6,4.3c0.7,1.9,0.4,3.9-0.1,5.8l-0.1,0.2c-0.6,1.9-1.5,4.2-0.2,6
			c0.7,0.9,1.7,1.6,2.6,2.3c0.8,0.6,1.5,1.4,2.2,2.1c1.4,1.6,2.6,3.5,3.4,5.6l0.1,0.2c0.6,1.8,1.1,4.1,0.2,5.9
			c-0.2,0.5-1,0.3-1.2-0.2c-0.3-1.1-0.3-2.3-0.6-3.5c-0.3-1.2-0.7-2.3-1.3-3.4c-1.1-2.1-2.7-3.9-4.5-5.4l-0.5-0.4
			c-1.4-1.2-2.7-2.4-3-4.4c-0.3-2.1,0.5-4,1.1-6c0.4-1.4,0.5-2.7,0.1-3.9c-0.5,0.8-1.2,1.6-1.7,2.2c-1.1,1.4-2.1,2.7-3.2,4
			c-1.1,1.4-2.2,2.8-3.2,4.2c-0.5,0.6-0.9,1.3-1.3,1.9c-0.3,0.5-0.8,1-1.2,1.5c0.1,0.3,0.1,0.6-0.1,0.8c-1.9,2.6-4.7-2.8-5.4-4.2
			c-1.5-2.8-2.6-5.8-4-8.6c-1.5-2.9-3.3-5.8-5.2-8.4c-1.2-1.6-2.5-3.1-3.6-4.8c-2.5,2.3-5.8,3.8-8.9,5.2c-3.3,1.5-6.8,2.8-10.3,4.1
			l-1,0.4c-5.9,2.3-12,4.8-16.9,8.9c-5.8,4.8-9.2,11.5-11.7,18.5c-2.9,8-5.4,16.2-7.6,24.5c-1.2,4.2-2.3,8.4-3.3,12.7
			c-0.9,3.7-1.7,7.5-2.7,11.2c2.1-0.1,4.6,0.8,6.4,1c8.3,1.1,16.5,2.8,24.3,5.8c1,0.4,1.2,1.3,1,2.1c0.6-0.2,1.1-0.3,1.7-0.5
			c-0.6-0.9-0.3-2.6-0.3-3.7l0-0.1c0-1.4,0.2-2.8,0.3-4.2c0.2-2.6,0.4-5.3,0.7-7.9l0.1-0.7c0.4-2.9,0.6-5.7,1-8.6l0-0.3
			c-0.2-0.7-0.4-1.4-0.6-2.2c-0.6-1.9-1.5-3.7-2.3-5.6c-0.1-0.2,0.2-0.3,0.4-0.2c1.3,1.2,2.3,2.7,3.2,4.2c0-0.1,0-0.1,0-0.2l0.1-0.5
			c0.2-1.1,0.5-2.3,1.2-3.3c0.1-0.1,0.2-0.1,0.3,0c0.7,1.1,0.7,2.6,0.8,3.8c0.1,1.5,0.1,2.9,0.1,4.4c0,2.8-0.2,5.7-0.4,8.5
			c-0.2,2.8-0.5,5.5-0.9,8.3l-0.1,0.5c-0.2,1.3-0.4,2.6-0.6,4l-0.1,0.4c-0.1,0.6-0.2,1.6-0.5,2.3c7-2,14-3.9,21-5.7
			c5.1-1.4,10.2-2.7,15.2-4c0.3-0.5,0.6-0.9,1-1.3c1.4-1.3,3.2-1.9,4.9-0.9c0.1,0.1,0.1,0.3,0,0.4c-0.3,0.2-0.6,0.4-1,0.5l3.1-0.8
			c2.3-0.6,4.6-1.4,6.9-1.8c4.3-2.1,8.9-3.7,13.4-5.2l0.5-0.2c2.3-0.8,4.7-1.7,7.1-2.1c1.8-0.3,3.8,0.1,4.5,1.9
			c0.9,0.6,1.7,1.3,2.5,2c0.6,0.5,1.1,1,1.7,1.5l0.1,0.1c0.5,0.4,0.8,0.7,1,1.3c0.1,0.3-0.2,0.8-0.6,0.7c-1.3-0.1-2.3-1.6-3.1-2.5
			c-0.7-0.7-1.3-1.4-1.9-2.1c-0.4,0.2-0.8,0.2-1.1-0.3c-1.2-2.2-4.3-0.7-6.1-0.2l-2.5,0.7c-1.3,0.4-2.5,0.7-3.8,1.1
			c-3.4,1-6.9,2.2-10.3,3.2c0.3,0.3,0.3,0.9-0.3,1.2c-2.7,1.1-5.7,1.6-8.5,2.4c-1.8,0.5-3.6,0.9-5.4,1.4c-0.3,0.5-0.5,1.1-0.6,1.7
			c-0.3,2.4,0.3,5.2,1,7.5l0.1,0.3c0.5,1.9,1.3,4.2,2.9,5.3c0.4,0.3,0.9,0.5,1.4,0.5c3.1-1.6,6.3-3.2,9.4-4.9
			c0.6-0.3,1.1,0.1,1.3,0.6c1.1-0.2,2.2-0.5,3.2-0.8c1.7-0.6,3-1.7,4.6-2.4c3.1-1.5,6.2,0.3,9,1.7l0.6,0.3c1.2,0.6,3.8,1.8,4.4,0.1
			c0.6-1.6-1.2-3.3-2.4-4c-1.4-0.9-3-1.3-4.6-1.7c-0.9-0.2-1.8-0.4-2.7-0.5c-1-0.1-2.1-0.1-3.1-0.5c-0.5-0.2-0.6-1,0-1.1
			c1.5-0.4,3.4,0,5,0.4l0.8,0.2c1.6,0.4,3.3,0.9,4.7,1.7c1.1,0.6,2.2,1.5,2.9,2.5c0.6-0.6,1.4-0.6,2.3-0.4l0.5,0.1
			c0.7,0.2,1.4,0.3,2.1,0.2c0.1-0.5,0.2-1.1,0.3-1.6c1-5.2,2.2-10.4,3.4-15.5c2.2-8.9,4.7-17.7,7.5-26.4l0.3-0.9
			c0.6-2,1.2-4.2,2.2-6c1-1.7,2.6-2.7,4.5-3.3c2.1-0.6,4.4-0.9,6.6-1.3c0.5-0.1,1-0.2,1.5-0.3c-0.4-0.7-0.7-1.6-1-2.2l0-0.1
			c-0.6-1.4-1.1-2.7-1.6-4.1l-0.4-1c-0.9-2.5-1.9-5-3.2-7.3c-1.4-2.5-3.2-4.5-5.5-6.2c-4.7-3.4-10.3-5.2-14.8-8.8
			c-0.2-0.1,0.1-0.4,0.2-0.3c3,1.5,6.3,2.6,9.5,3.8l0.6,0.2c2.5,1,5.1,2.1,7.2,3.7c2.4,1.8,4.3,4,5.8,6.7c1.4,2.6,2.3,5.5,3.3,8.3
			l0.3,0.7c0.4,1.1,0.8,2.2,1.3,3.3c0.4,0.9,1.1,1.8,1.4,2.8c0.9-0.2,1.8-0.3,2.6-0.4c19-3.2,38.2-5,57.4-5.6c0.8,0,1.1,0.7,1,1.4
			c-1.8,10.9-3.5,21.9-5.3,32.8c-0.8,4.8-1.6,9.5-2.4,14.3c-0.4,2.4-0.9,4.8-1.3,7.2c-0.3,2-0.5,3.9-1.1,5.8
			c-0.5,1.7-1.2,3.4-2.5,4.7c-1.3,1.4-3.2,2.1-5.1,2.4c-4.7,0.8-9.6,1.1-14.4,1.7l-25.4,2.9c0.4,3.4,0.4,6.7,0.2,10.1l-0.1,1.9
			c-0.1,1.5-0.2,3-0.4,4.5c-0.3,1.9-1.1,3.4-2.4,4.8c-1.2,1.3-2.6,2.4-3.9,3.4c-1.4,1.1-2.9,2.1-4.5,2.8l-0.2,0.1
			c-1.5,0.6-4.2,1.5-6.2,1.1c0.3,1.3,0.8,2.7,0.3,4c-0.2,0.6-1,0.9-1.5,0.4c-1-1-1-2.4-1.3-3.7c-0.2-1.4-0.4-2.8-0.6-4.1
			c-0.3-2.7-0.6-5.4-0.7-8.1c-0.1-2.8-0.1-5.5,0.1-8.3c0.1-1.4,0.2-2.8,0.4-4.3c0.1-0.6,0.2-1.2,0.2-1.8c0-0.2,0.1-0.4,0.1-0.7
			l-2.3,0.3c-3.5,0.4-7,0.7-10.5,0.8c-0.4,0-0.7-0.2-0.9-0.5c-0.2,0.4-0.6,0.6-1.2,0.6c-4.9,0-9.5-1.6-14-3.5c-2.3-1-4.5-2-6.7-2.9
			c-2.1-0.9-4.4-1.5-6.4-2.5l-5.4,2.8c0,0.1-0.1,0.3-0.1,0.4c-0.4,0.7-1,1.1-1.8,1.4c-0.7,0.3-1.4,0.4-2.1,0.3
			c-4.1,2.2-8.2,4.3-12.3,6.4l-4.1,2.1c-8.2,4.3-16.3,8.6-24.6,12.8l-0.6,0.3c-2.8,1.4-5.9,2.9-9.1,4c-0.1,0.8,0,1.6,0,2.4l0,0.2
			c0.1,1,0.3,2.3-0.5,3c-0.4,0.4-1.2,0.4-1.4-0.2c-0.5-1-0.1-2.6,0.1-3.7c0.1-0.4,0.1-0.8,0.2-1.2c-3.6,1.1-7.4,1.6-11,1
			c-3.6-0.6-6.4-2.9-8.6-5.6c-2.4-2.9-4-6.3-4.9-10c-1-4.1-1.1-8.4-1.1-12.7c0-4.5,0.2-9.1,0.7-13.6c-0.6-0.1-1.3-0.3-1.9-0.2
			c-0.3,0.5-0.9,0.7-1.4,0.6c-1.1,1.3,1.8,2.6,2.7,2.9c0.3,0.1,0.3,0.6-0.1,0.6l-0.2,0c-1.4-0.1-2.9-0.3-3.8-1.7
			c-0.7-1.1-0.5-2.3,0.3-3.2c0.5-5.1,1.8-10,3-14.9c1.2-4.8,2.5-9.6,3.8-14.4l0.6-2.1c2.2-7.5,4.4-15.1,7.4-22.3
			c1.5-3.6,3.2-7.1,5.5-10.3c2.2-2.9,4.7-5.4,7.7-7.6c5.5-4,11.9-6.4,18.3-8.7l0.3-0.1c3.3-1.2,6.6-2.4,9.8-3.7
			c2.9-1.1,5.6-2.6,8.5-3.7c-0.1-0.2-0.2-0.3-0.3-0.5l-0.1,0c0,0,0,0,0,0c-0.3,0.2-0.7,0.1-0.9-0.1c-0.7-0.6-0.4-1.3,0-2l0.1-0.1
			c0.5-0.8,1-1.6,1.5-2.4l0.3-0.5c0.8-1.3,1.7-2.7,2.9-3.7c0.5-0.5,1.1-0.9,1.7-1.2c-0.1-0.1,0.4-0.3,0.5-0.2
			c1.9-0.7,4.1-0.6,6.2-0.4 M175,251.7l-2.7,0.3c-2.9,0.3-5.9,0.7-8.8,1l-6.4,0.7c0,0.4-0.1,0.7-0.1,1c0,1.4-0.1,2.8-0.1,4.2
			c-0.1,2.8,0,5.7,0.2,8.5c0.2,2.7,0.4,5.5,0.8,8.2l0.1,0.5l0,0.3c0.3,0,0.6,0.2,0.8,0.5c0.5,0.6,2.5,0,3.3-0.3
			c1.3-0.4,2.4-1.2,3.5-2c1.1-0.7,2-1.6,2.9-2.5l0.8-0.7c0.7-0.7,1.5-1.5,2-2.5c0.6-1.3,0.7-2.8,0.9-4.2c0.2-1.7,0.5-3.4,0.8-5.1
			 M97.6,233.9l-0.3,0.1c-10,2.7-20.1,5.4-30.2,8c-5,1.3-10,2.4-15,3.7l-0.8,0.2c-3.9,1-7.9,2.2-10.9,5.1c-0.1,0.1-0.3-0.1-0.2-0.2
			c3.3-3.5,7.9-4.9,12.3-6.2c0.8-0.2,1.6-0.5,2.5-0.7c-6-2.2-12.2-4-18.4-5.4c-1.6-0.3-3.2-0.6-4.9-0.9c-1.1-0.2-2.2-0.6-3.3-0.9
			l-0.9-0.2l0,2.8c0,3.9,0,7.8,0.2,11.8l0,0.7c0.2,4.4,0.6,8.8,2.1,12.9c1.3,3.3,3.3,6.5,5.9,8.9c1.3,1.2,2.8,2.2,4.5,2.7
			c1.6,0.4,3.4,0.5,5,0.4c8.1-0.6,15.3-5,22.3-8.6c11.5-5.9,23-11.9,34.4-17.8c-0.3-0.2-0.6-0.5-0.9-0.7c-1.5-1.6-2.4-3.8-2.9-5.9
			c-0.6-2.2-0.9-4.7-0.9-7 M112.2,252.5c0.1-0.1,0.2,0,0.2,0.1c0,0.9-0.4,1.7-0.8,2.5l0,0.1c-0.4,1-0.9,1.9-1.4,2.9
			c-1,1.9-2,3.8-3.1,5.6c-2.2,3.7-4.6,7.3-7.4,10.5c-0.6,0.7-1.7-0.2-1.3-1c2-3.8,4.3-7.4,6.7-11c1.2-1.8,2.4-3.6,3.6-5.3
			c0.5-0.7,1-1.5,1.5-2.2l0.3-0.4 M231.4,180.6c-10.1,0.3-20.2,1-30.2,2c-9.3,1-18.6,2.2-27.9,3.8c-1.9,0.3-3.9,0.7-5.8,1l-1.2,0.2
			c-1.9,0.4-4.3,0.5-6,1.5c-1.8,1.1-2.3,3.4-2.9,5.2c-0.7,2.2-1.4,4.4-2.1,6.6c-2.7,8.8-5.1,17.6-7.3,26.6c-1.1,4.4-2,8.9-3,13.3
			c-0.9,3.9-1.9,7.8-2.9,11.8c0.1-0.1,0.3-0.2,0.5-0.2c5.1-1.1,10.4-1.6,15.6-2.2l0.5-0.1c5.4-0.6,10.8-1.3,16.1-1.9l35.6-4
			c2.1-0.2,4.4-0.3,6.4-0.8c3.5-1,4.3-4.8,4.9-7.9l0-0.1c1.8-9.4,3.2-18.8,4.8-28.2 M143,241.8c-1.4-0.1-3.3-1.4-4.3-1.3
			c0.6,0.9,0.8,2,0.5,3.1c-0.9,3.1-4.9,1.5-6.8,0.6c-1.6-0.8-3.1-1.7-4.8-2.1c-2-0.4-3.3,0.4-5,1.3c-1.4,0.7-2.9,1.3-4.4,1.6
			c-0.8,0.1-1.6,0.2-2.4,0.1c0,0-0.1,0.1-0.2,0.1l-0.4,0.2c1.9,0.1,3.7,0.7,5.5,1.2c1.8,0.5,3.5,1.2,5.3,1.9l1.7,0.7
			c4.2,1.6,8.6,3.2,13.2,3.2c0.3,0,0.6,0.1,0.8,0.2 M135.3,232c1.4-0.2,2.6,0,3.7,0.9c1.3,1.1,2.2,2.9,4.1,3c0.6,0,0.7,0.8,0.1,1
			c-1.4,0.4-2.5-0.3-3.5-1.3l-0.6-0.7c-0.9-1-1.8-1.7-3.4-1.7c-1.7,0.1-3.5,0.5-5.2,0.7c-1.9,0.2-3.9,0.4-5.8,0.6
			c-0.1,0-0.1-0.1,0-0.2l2.2-0.5 M133.9,226.4l0.2,0c2-0.2,3.8-0.2,5.6,0.9l0.3,0.2c1.6,1,3.3,2.1,4.3,3.7c0.2,0.3-0.1,0.6-0.4,0.5
			c-1.9-0.5-3.3-1.9-4.9-2.9c-1.8-1.2-3.7-1-5.8-0.8c-2,0.2-4,0.4-6,0.8c-1.9,0.3-3.7,0.8-5.6,1v0c-0.2,0-0.3-0.3-0.1-0.4
			c1.9-1,4.1-1.4,6.2-1.8 M194.2,206.8c-0.2-0.9,0.9-1.3,1.5-0.6l0.1,0.2c1.1,1.5,2.8,3.5,2.7,5.5c1,0,2,0.6,2.4,1.5
			c0.2,0.4,0.2,0.9,0.2,1.4c0.9,0.1,1.9,0.7,2.4,1.2c0.9,1,1,2.3,0.3,3.4c-1.4,2.4-4.6,3.3-7.2,3.5l-0.1,0c-2.7,0.2-6.7,0.1-8.5-2.2
			c-1.8-2.3,0.2-4.1,2.2-5.1c-0.5-0.5-0.8-1.2-0.5-1.9c0.5-1.3,2.1-1.8,3-2.7C193.8,209.9,194.5,208.4,194.2,206.8 M195.7,208.7
			c-0.3,1.3-1,2.5-2.1,3.4c-0.4,0.4-0.8,0.7-1.3,1l-0.1,0c-0.4,0.2-1.4,0.7-1.3,1.2c0.1,0.5,1.7,1.3,2.1,1.3c0.1,0,0.2,0.2,0.1,0.2
			c-0.8,0.4-1.5,0.5-2.3,0.1c-0.5,0.5-1,1.1-1.5,1.6c-0.9,1-0.6,2,0.5,2.7c1.7,1.2,4.3,1.1,6.2,1.1c2-0.1,4.1-0.5,5.7-1.9l0.1-0.1
			c0.8-0.8,1.6-2,0.3-2.7c-0.5-0.3-1.1-0.3-1.5-0.4c-0.4,0.9-1.2,1.6-2.1,1.7c-0.7,0.1-1.2-0.8-0.6-1.2l0.1-0.1
			c0.8-0.5,1.5-1.3,1.5-2.4c0-0.7-1-1.7-1.7-1l0,0c-0.6,0.6-1.5-0.2-1.2-0.9l0,0 M66,172.4c0-0.2,0.2-0.2,0.3-0.1
			c1.3,2.3,2,5.1,2.7,7.6c0.7,2.6,1.3,5.3,1.8,7.9c1.1,5.4,1.6,10.8,1.7,16.3c0,0.8-1.3,1-1.4,0.2c-0.8-5.4-1.6-10.7-2.5-16.1
			c-0.4-2.7-0.9-5.4-1.4-8.1 M78.8,176.4c-0.1-0.3,0.4-0.4,0.5-0.1c2.6,6.4,3.5,13.6,1.8,20.3c-0.3,1-1.8,0.6-1.6-0.4 M112.2,170.7
			c0-0.2,0.3-0.3,0.4-0.1c1.2,1.7,1.7,4,3.9,4.9c1.1,0.4,2.3,0.4,3.2,1.1c0.6,0.5,1.1,1.3,0.6,2.1c-0.2,0.2-0.6,0.4-0.8,0.1
			c-0.3-0.4-0.5-0.9-0.9-1.2c-0.6-0.4-1.4-0.4-2-0.6c-0.9-0.3-1.6-0.7-2.3-1.3 M132.7,141.8c0.1-0.1,0.2,0,0.3,0.1
			c0.1,0.2,0.1,0.3,0,0.4c0.2,0.4,0.4,1.4,0.4,1.5c0.1,0.6,0.3,1.1,0.4,1.7c0.3,1.1,0.5,2.3,0.8,3.4c0.3,1.2,0.7,2.4,1.1,3.6
			c0,0.1,0.1,0.2,0.1,0.2l0,0.1l0,0c0.1-0.1,0.3,0,0.2,0.1c0,0.1,0,0.3-0.1,0.4l0,0.1c0.3,0.7,0.4,1.5,0,2.1
			c-0.2,0.2-0.4,0.4-0.6,0.4c-0.4,1.3-0.9,2.6-1.5,3.9l-0.2,0.4c-0.8,1.8-1.6,3.6-2.9,5.2c-1.4,1.7-3.3,2.9-4.5,4.7
			c-0.6,0.9-1,1.8-1.3,2.8l-0.1,0.4c-0.2,0.7-0.5,1.4-1.1,1.8c-0.2,0.1-0.5,0.1-0.7-0.1c-1.3-1.4,0.1-4,0.9-5.4
			c1.1-1.9,2.7-3.1,4.3-4.5c1.7-1.5,2.9-3.6,3.9-5.6c0.7-1.2,1.3-2.5,2-3.8c-0.7-0.6-0.9-1.8-1.2-2.7l0-0.1
			c-0.4-1.4-0.7-2.8-0.9-4.2c-0.2-1.4-0.3-2.7-0.2-4.1l0-0.3 M135.3,148.3c-0.2-0.2,0.1-0.5,0.3-0.4c1.3,0.3,2.5,1,3.7,1.7l0.1,0.1
			c0.9,0.5,1.9,1.1,2.3,2.1c0.5,1.1,0.5,2.3,0.4,3.4l0,0.1c-0.1,1.4-0.1,2.8-0.4,4.1c-0.1,0.7-0.8,0.9-1.3,0.7
			c-0.6,2-2.4,3.5-3.7,5.1c-1.7,2-1.3,4.7-1.2,7.2c0.1,1-1.2,1.3-1.8,0.7l-1.5-1.2c-0.2-0.2-0.5-0.4-0.7-0.6
			c-0.2-0.2-0.4-0.3-0.6-0.5l-0.3-0.3c-0.1-0.1-0.7-0.8-0.9-0.8c-0.4-0.1-1.4,1-1.8,1.4l0,0c-0.6,0.6-1.2,1.3-1.8,2
			c-0.1,0.1-0.3,0-0.2-0.1c0.5-1,1-2,1.7-3l0.1-0.2c0.4-0.6,1-1.7,1.8-1.8c1-0.2,1.9,0.7,2.6,1.3l0,0c0.3,0.2,0.7,0.5,1,0.8
			c0-1.8,0.2-3.6,1.1-5.2c0.7-1.1,1.6-1.9,2.5-2.9c0.9-1.1,1.4-2.3,2.3-3.4c0.1-0.1,0.3-0.2,0.4-0.2c0-0.9,0.2-1.8,0.3-2.6l0-0.3
			c0.1-0.9,0.3-2.1-0.1-3c-0.4-0.8-1.4-1.4-2.2-2l-0.6-0.5 M93.5,138.3c-0.4,0.2-0.8,0.5-1.1,0.9c-1,1.1-1.8,2.5-2.5,3.8
			c-0.4,0.7-0.8,1.4-1.2,2.1c-0.2,0.3-0.3,0.6-0.5,0.9c-0.1,0.1-0.3,0.4-0.4,0.6c0.1,0.2,0.3,0.4,0.4,0.6c0.1,0.1,3.8,4.1,5.1,5.7
			c2,2.4,3.8,5,5.3,7.7c1.5,2.7,2.6,5.5,4,8.3c0.7,1.4,1.5,2.7,2.4,3.9c0,0,0.1,0.1,0.1,0.1c0.4-1,1.3-2.1,1.8-2.7l0-0.1
			c1.1-1.4,2.2-2.8,3.3-4.2c1.1-1.3,2.1-2.5,3.2-3.7l0.4-0.5c0.8-0.8,1.7-2.1,2.9-2.7c-0.1-0.2-0.3-0.4-0.4-0.6
			c-1.1-1.4-2.5-2.4-4-3.3l-1-0.6c-3.6-2.2-7.1-4.5-10.3-7.3c-1.7-1.5-3.3-3.1-4.7-4.8l-0.5-0.6 M99.5,137.2
			c-1.7,0.1-3.5,0.1-5.1,0.7c1.4,1.3,2.7,2.7,4.1,4.1c0.1-0.9,0.4-1.8,0.6-2.7"/>
		<path class="st1" d="M116.7,53.9c12,0,24.4,9.3,28.8,15.2c3.7,5,5.7,27.6,5.7,42.8c0,3.2,1.8,9.2,1.2,12.3
			c-1.9,11.2-10.1,20.6-26.3,20.6s-27.9-6.4-39.9-23.7c-5.9,0-8.7-4.5-8.7-11.6c0-7.1,5.6-9.7,5.6-9.7s-2-28,3.1-35.2
			C91.3,57.3,104.7,53.9,116.7,53.9z"/>
		<path class="st2" d="M111.7,50c7.6-0.8,15-0.1,22.5,1.2c0.6,0.1,0.9,0.5,1,0.9c3.5,0.2,7,0.4,10.5,0.6c1.3,0.1,2,1.3,1.4,2.5
			c-0.1,0.2-0.2,0.4-0.4,0.7l0.2-0.1c1.1-0.3,2.2-0.5,3.2,0c1.3,0.7,1.8,2.2,1.5,3.6c-0.1,0.4-0.2,0.7-0.3,1c0.3,0,0.6,0,0.9,0
			c1.5,0.2,2.7,1.4,2.7,2.9c0.1,2.4-1.4,4.8-3.2,6.4c0.3,0.5,0.4,1.2,0.3,1.8c-0.2,1.3-1.1,2-2.2,2.5c0.4,1.4,0.7,2.9,0.5,4.4
			c0,0.5-0.5,0.9-1,1c1.8,4.8,2.6,10,3.3,15c0.5,3.6,0.7,7.2,0.7,10.8c0,1.6,0,3.3-0.1,4.9l0,0.6c-0.1,1.8-0.1,3.6-0.4,5.4
			c1.1,1.8,1.5,4.1,1.7,6.2c0.2,2.6-0.1,5.2-0.9,7.6c-3,9.2-12.2,15-21.4,16.5c-8.5,1.4-18.4-0.5-23.4-8.2c-0.1-0.1,0.1-0.2,0.2-0.1
			c3.6,2.9,7.7,4.2,12.2,4.8c7.8,1.1,16.5-0.8,22.7-5.6c3-2.3,5.1-5.8,6.1-9.4c0.5-1.9,0.6-3.8,0.5-5.8c-0.2-2-1.1-3.6-1.6-5.5
			c-0.2-0.6,0-1.2,0.4-1.6c0.1-1.5,0.4-3,0.5-4.5c0.1-1.7,0.2-3.4,0.2-5.1c0-3.5-0.1-7.1-0.4-10.6c-0.5-6.5-2-12.8-2.8-19.2
			c-0.3,0.3-0.8,0.4-1.2,0.2l0,0l-0.3-0.1c0,0,0,0,0,0c-1.8,0.2-3.6-0.1-5.3-0.6c-1.8-0.5-3.4-1.4-4.9-2.5c-0.3,1.4-0.4,2.8-0.4,4.3
			c0,0.9-1,1.4-1.7,1c-3.4-1.7-6.6-3.7-9.6-5.9c-0.4,1.8-0.7,3.6-1.1,5.5c-0.1,0.7-1,1-1.6,0.7c-2.3-1.3-4.2-3.1-5.8-5.1
			c-0.3,0.6-0.6,1.2-1,1.8l-0.5,0.9c-0.5,0.9-1.1,1.9-2.2,2.2c-1.1,0.3-2-0.4-2.4-1.4c-0.1-0.3-0.2-0.6-0.3-1
			c-0.9,2.2-2,4.3-3.2,6.3c-1.8,3-4,5.7-6.2,8.5c-0.7,0.8-1.8,0-1.9-0.8c-0.1-0.5-0.1-1-0.1-1.4c-1.3,2.6-2.6,5.1-4,7.5l0.2,0.8l0,0
			c0.6,2.4,1.1,4.8,1.6,7.2c0.2,0.8-0.2,1.9-1.1,2c-1.1,0.2-2.1,0.7-3.2,0.3c-1.2-0.4-1.4-1.5-2-2.4c-0.1-0.2-0.2-0.4-0.4-0.5l0,0
			l0,0c-0.1,0.1-0.3,0-0.2-0.1l0.1-0.2l0,0c-0.5-0.5-1.1-1-1.6-1.4c-1.3-0.2-2.7,0-3.6,0.5c-2,1.2-2.9,3.6-2.9,5.9
			c0,2.6,0.8,5.6,2.2,7.8c0.6,1,1.4,1.9,2.5,2.3c1.1,0.4,2.3,0.3,3.4,0.7c0.7,0.3,1.2,1.1,0.7,1.8c0,0.1-0.1,0.1-0.1,0.1l0.3,0.4
			c0.2,0.3,0.5,0.6,0.7,1c0.6,0.6,1.2,1.3,1.7,1.9c1.1,1.2,2.1,2.4,3.1,3.6c1,1.1,2,2.2,3.1,3.2c1,1,2.3,1.8,3.2,2.9
			c0.9,1,1.1,2.8-0.3,3.4c-1.6,0.7-3.1-0.9-4.2-1.9l0,0c-2-1.9-3.9-4-5.3-6.4c-1.4,1-3.5,1.1-5,0.1c-0.8-0.5-1.3-1.4-1.6-2.3
			c-0.3,0.1-0.5,0.1-0.8,0.1c-0.1,0.1-0.3,0.2-0.4,0.2c-1.1,0.6-2.4,0.3-2.9-0.9c-0.4-1.1,0-2.3,0.4-3.3l0.1-0.2
			c0.2-0.6,0.5-1.2,0.8-1.8c-0.9-0.7-1.6-1.5-2.2-2.4c-2.1-3.1-3.2-7.7-2.7-11.4c0.3-2.2,1.3-4.6,3.1-6.1l-0.1-0.2l0,0
			c-0.5-1.2-0.9-2.5-1.2-3.8c-0.3-1.5-0.5-3.1-0.6-4.6c-0.3-3.3-0.2-6.6,0.2-9.9c0.8-6.1,2.8-12.1,6.3-17.2c-1-1.2-1.8-2.6-1.4-4.2
			c0.2-0.7,0.6-1.4,1.3-1.9c0.4-0.2,0.8-0.3,1.1-0.5l0.1-0.1c0.2-0.1,0-0.1-0.1-0.5c-0.4-1.7-0.1-3.3,1.8-3.9
			c1.8-0.5,3.4,0.6,4.5,1.9c2.7-1.9,6.3-2.9,9.5-3.8C104.3,51,108,50.4,111.7,50z M82.2,107c0-1.4,1.3-2.2,2.6-2
			c0.9,0.2,1.6,0.7,2.3,1.2l0.3,0.3c0.8,0.7,1.8,1.4,2.3,2.3c0.7,1.4-0.8,3.2-2.2,2.2c-1-0.7-1.6-1.7-2.2-2.7l-0.1-0.1
			c-0.3-0.4-0.5-0.9-0.9-1.3l-0.1-0.1c-0.1-0.1-0.3-0.2-0.4-0.3c-0.3-0.1-0.9,0-1.1,0.4l0,0C82.5,107.2,82.2,107.2,82.2,107z"/>
		<path class="st2" d="M131.2,128.3c-1.4-0.6-2.7-1.5-3.6-2.8c-0.3-0.4-0.4-0.9-0.3-1.3c0.1-0.5,0.4-0.9,0.7-1.2
			c0.4-0.3,0.8-0.4,1.3-0.4c0.4,0.1,0.8,0.3,1.1,0.7l0.1,0.1c0.6,0.7,1.3,1.4,2.1,1.8c0.8,0.4,1.7,0.6,2.6,0.5
			c1.7-0.2,2.9-1.1,4.2-2.4c0.2-0.2,0.3-0.3,0.5-0.5c0.1-0.2,0.2-0.3,0.4-0.3c0.2-0.1,0.4-0.1,0.5,0c0.2,0.1,0.3,0.2,0.4,0.3
			c0.1,0.1,0.2,0.3,0.1,0.5c-0.1,1.3-0.8,2.5-1.8,3.4c-1.1,1-2.5,1.7-3.9,2C134.1,129,132.5,128.8,131.2,128.3L131.2,128.3z
			 M136.3,107.9c1.6,1,4,3.2,2.3,5.6c-2,2.1-4.9-0.3-6.4-1.4c-1.3-0.9-2.8,1.3-1.6,2.3c10.4,7.7,14.6-6.3,6.4-7.7
			C136.2,106.6,135.9,107.6,136.3,107.9z M117.7,98.9c0.2-2.2,3.5-2.7,3.8-0.5c0.3,1.9-0.1,3.7-0.9,5.5c-0.8,1.7-2.9,0.9-3.1-0.6
			C117.3,101.2,117.6,100.3,117.7,98.9z M143.1,98c0.5-0.6,1.1-1,1.9-0.8c2.5,0.7,1.8,4.3,0.9,6c-0.5,0.9-2,1.2-2.7,0.4
			c-1.1-1.4-1.7-4.1-0.2-5.4C143,98.1,143,98,143.1,98z M120.6,89.4l0.4-0.1c1.2-0.2,2.8-0.4,3.6,0.6c0.5,0.5,0.6,1.5,0,2
			c-1.1,0.9-2.3,0.5-3.6,0.6c-1.1,0.1-2.1,0.2-3.1,0.5c-2.3,0.6-4.1,1.8-6.1,3.1c-0.3,0.2-0.5-0.2-0.4-0.4c1.1-2.2,3.3-4,5.5-5.1
			C118,90.1,119.3,89.6,120.6,89.4z M140.8,88.4l0.3,0.1c3.3,0.7,7.6,2.1,9.2,5.3c0.1,0.5,0,0.6-0.1,0.6l0,0c0,0.1-0.1,0.1-0.3,0.2
			c-0.1,0-0.1,0-0.2,0c-0.7-0.2-1.3-0.4-1.8-0.7l-0.6-0.3c-0.7-0.3-1.4-0.7-2.1-0.9c-1.6-0.5-3.2-0.9-4.8-1.1c-0.4,0-0.7-0.2-1-0.4
			c-0.3-0.2-0.5-0.5-0.5-0.8c-0.1-0.5-0.1-0.8,0.2-1.2c0.2-0.3,0.5-0.5,0.8-0.7C140.1,88.3,140.4,88.3,140.8,88.4z"/>
	</g>
</g>
</svg>
