<?xml version="1.0" encoding="utf-8"?>
<!-- Generator: Adobe Illustrator 23.0.6, SVG Export Plug-In . SVG Version: 6.00 Build 0)  -->
<svg version="1.1" id="Calque_1" xmlns="http://www.w3.org/2000/svg" xmlns:xlink="http://www.w3.org/1999/xlink" x="0px" y="0px"
	 viewBox="0 0 916 469" style="enable-background:new 0 0 916 469;" xml:space="preserve">
<style type="text/css">
	.st0{fill-rule:evenodd;clip-rule:evenodd;fill:none;}
	.st1{fill-rule:evenodd;clip-rule:evenodd;fill:#0338F9;}
</style>
<g>
	<g>
		<path class="st0" d="M280.8,445.6c-11.1,0-21.8,0.4-32.9,0.5c-45.1,0.2-90.6-0.1-135.9-2c-12.8-0.5-16-0.5-28.7-1.3
			c-7.5,0-30.1-0.7-29-11.2c0.5-19.7,5.2-39.3,6.7-58.9c2.9-36.9,5.3-75,19.6-109.5c3.3-8.2,10.4-13.6,17.5-18.5
			c7.1-5.2,8.8-11,15.3-16.9c1.4-1.2,9.2-1.8,13.4-4.9c6.1-4.6,9.2-12.2,11.5-13.4c1.7-0.9,1.7-7.5,5-9.8c4.5-3.1,19-5.4,24.2-5.8
			c5-0.4,13.8,0.5,18.6,2.4c7.9,3.2,11,9.2,14.5,17.1c45.9,14.6,87.9,39.5,101,89.5c11.2,42,11.7,86.9,7.3,130
			c-0.9,3.1-0.3,8.1-2.9,10.2C315.3,443.3,282,445.2,280.8,445.6z"/>
		<path class="st1" d="M71.8,404.1c0.9-0.4,1.8-1,2.8-1c1.7-0.1,1.7-2.8,0-2.7c-1.5,0.1-2.8,0.7-4.1,1.4
			C68.9,402.6,70.3,404.9,71.8,404.1 M74.6,327.1c-1.2,0-2.3,0.2-3.2,1c-0.5,0.5-0.5,1.4,0,1.9c0.5,0.5,1.3,0.5,1.9,0
			c-0.2,0.2,0,0,0.1,0c0,0,0,0,0,0c0,0,0,0,0,0c0.1,0,0.3-0.1,0.4-0.1c0,0,0.3,0,0.4,0c0.1,0,0.3,0,0.4,0c0.7,0,1.3-0.6,1.3-1.4
			C75.9,327.7,75.3,327.1,74.6,327.1 M87,357.8c0.4,1.7,2.9,1,2.6-0.7c-0.6-2.5-0.5-5,0-7.5c0.3-1.7-2.2-2.5-2.6-0.7
			C86.5,351.8,86.4,354.8,87,357.8 M90.4,259.5c2-0.5,3.9-0.5,6-0.5c1.7,0,1.7-2.7,0-2.7c-2.3,0-4.5,0.1-6.7,0.6
			C88,257.2,88.7,259.9,90.4,259.5 M97,326.1c1.1-0.6,2.3-1.2,3.4-1.8c1.5-0.8,0.2-3.1-1.3-2.4l-3.4,1.8
			C94.1,324.5,95.5,326.9,97,326.1 M97.5,380c1.5,2.2,3.5,3.5,5.9,4.2c1.7,0.5,2.4-2.2,0.7-2.6c-1.8-0.5-3.3-1.4-4.4-2.9
			C98.8,377.2,96.5,378.6,97.5,380 M106.7,283.7c0.4-0.8,1-1.1,1.7-1.1c1.7,0,1.7-2.8,0-2.7c-1.7,0-3.2,0.9-4,2.5
			C103.6,283.8,105.8,285.2,106.7,283.7 M123.5,302.3c0.5,0.5,1.4,0.5,1.9,0c0.3-0.3,0.5-0.7,0.7-1.1c0.1-0.1,0.1-0.3,0.2-0.4
			c0-0.1,0.1-0.1,0.1-0.2c0,0,0,0,0.1-0.1c0.5-0.6,0.5-1.4,0-1.9c-0.5-0.5-1.4-0.5-1.9,0c-0.3,0.3-0.5,0.7-0.7,1.1
			c-0.1,0.1-0.1,0.3-0.2,0.4c0,0.1-0.1,0.1-0.1,0.2c0,0,0,0-0.1,0.1C123,300.9,123,301.7,123.5,302.3 M124.9,342.7
			c1.7,0.8,3.6,0.8,5.4,0c0.7-0.3,0.8-1.3,0.5-1.9c-0.4-0.7-1.2-0.8-1.8-0.5c-0.8,0.4-1.9,0.4-2.7,0c-0.7-0.3-1.4-0.2-1.8,0.5
			C124.1,341.4,124.2,342.4,124.9,342.7 M129.6,371.3c0.3,0.7,0.9,1.1,1.7,1.1c0.7,0,1.3-0.7,1.3-1.4c0-0.5-0.2-0.9-0.6-1.1
			c0,0,0-0.1,0-0.1c0-0.8-0.6-1.3-1.3-1.4c-0.7,0-1.3,0.7-1.3,1.4C129.4,370.3,129.4,370.8,129.6,371.3 M136.5,416.7
			c2.1,0,4.2,0.6,6.3,0.6c1.7,0,1.7-2.7,0-2.7c-2.1,0-4.2-0.6-6.3-0.6C134.7,414,134.7,416.7,136.5,416.7 M145.3,241.4
			c1.2,1.2,2.8,1.8,4.3,2.6c1.5,0.8,2.9-1.6,1.3-2.4c-1.3-0.6-2.7-1.1-3.7-2.2C145.9,238.2,144,240.2,145.3,241.4 M148.6,272.9
			c0.9-0.4,1.8-1,2.8-1c1.7-0.1,1.7-2.8,0-2.7c-1.5,0.1-2.8,0.7-4.1,1.4C145.7,271.3,147.1,273.7,148.6,272.9 M164.5,399.5
			c0.4-0.8,1-1.1,1.7-1.1c1.7,0,1.7-2.8,0-2.7c-1.7,0-3.2,0.9-4,2.5C161.4,399.7,163.7,401.1,164.5,399.5 M170.1,340.1
			c0.5-0.5,0.5-1.4,0-1.9c-0.6-0.6-1.1-1.2-1.7-1.8c-0.5-0.5-1.3-0.5-1.9,0c-0.5,0.5-0.5,1.4,0,1.9c0.6,0.6,1.1,1.2,1.7,1.8
			C168.7,340.6,169.5,340.6,170.1,340.1 M176.6,432.7c1.9,0,3.7-0.6,5.5-1.2c1.6-0.6,0.9-3.2-0.7-2.6c-1.6,0.5-3.1,1.1-4.8,1.1
			C174.9,430,174.9,432.7,176.6,432.7 M185.2,374.2c1.7,0,3.2-1,4.4-2.2c1.2-1.2-0.7-3.2-1.9-1.9c-0.7,0.7-1.5,1.3-2.5,1.4
			C183.5,371.5,183.5,374.2,185.2,374.2 M179.8,298.9c0,0.7-0.3,1.5-0.8,2c-1.2,1.3,0.7,3.2,1.9,1.9c1-1.1,1.5-2.5,1.5-3.9
			C182.5,297.2,179.9,297.2,179.8,298.9 M200.1,239.3c0.6-1.1,1.3-2.4,2.4-3.1c1.5-0.8,0.2-3.2-1.3-2.4c-1.5,0.8-2.6,2.5-3.3,4
			C197,239.5,199.3,240.9,200.1,239.3 M203.5,267.8c0.6,0,1.2-0.1,1.8-0.3c0.3-0.1,0.5-0.2,0.8-0.2c0.1,0,0.6-0.1,0.3-0.1
			c0.7,0,1.3-0.6,1.3-1.4c0-0.7-0.6-1.4-1.3-1.4c-1,0.1-1.9,0.6-2.9,0.6C201.8,265.1,201.8,267.8,203.5,267.8 M212.1,311.5h2.9
			c1.7,0,1.7-2.7,0-2.7h-2.9C210.4,308.8,210.4,311.5,212.1,311.5 M215.4,432.5c0.9,0.4,1.9,0.9,2.6,1.6c1.2,1.2,3.1-0.7,1.9-1.9
			c-0.9-0.9-2-1.4-3.1-2c-0.6-0.3-1.4-0.2-1.8,0.5C214.6,431.3,214.8,432.2,215.4,432.5 M221.8,397.9c0.1,0,0.2-0.1,0.3-0.1
			c0.5-0.1,0.9,0,1.4,0c1.7,0,1.7-2.7,0-2.7c-1.3,0-2.7,0-3.8,1c-0.5,0.5-0.5,1.4,0,1.9c0.5,0.5,1.3,0.5,1.9,0
			C221.6,398.1,221.8,398,221.8,397.9 M223.5,351.4c-0.4-0.8-0.4-1.4-0.4-2.3c0-1.8-2.7-1.8-2.7,0c0,1.3,0.2,2.4,0.8,3.6
			c0.3,0.7,1.2,0.8,1.8,0.5C223.7,352.9,223.9,352.1,223.5,351.4 M231.2,287.2c1.5,0.5,2.9,1.3,4.3,2.2c1.4,1,2.8-1.4,1.3-2.4
			c-1.5-1.1-3.1-1.9-4.9-2.5C230.3,284,229.6,286.7,231.2,287.2 M240.2,241.2c1.1,0,2.3,0.5,3.3,1c1.5,0.8,2.9-1.6,1.3-2.4
			c-1.5-0.7-3-1.3-4.7-1.4C238.5,238.4,238.5,241.1,240.2,241.2 M244.2,364.1c0.5,0,0.8-0.2,1.1-0.6c0,0,0,0,0.1,0
			c0.7,0,1.3-0.6,1.3-1.4c0-0.7-0.6-1.4-1.3-1.4c-0.5,0-0.9,0-1.4,0.2c-0.7,0.3-1.1,1-1.1,1.7C242.8,363.5,243.5,364.1,244.2,364.1
			 M250.7,269.5c1.6,0.5,2.3-2.1,0.7-2.6c-1.9-0.6-3.8-1.1-5.7-1.8c-1.6-0.5-2.3,2.1-0.7,2.6C246.9,268.4,248.8,268.9,250.7,269.5
			 M256.6,321.2c0.5,1.7,3.1,1,2.6-0.7c-0.5-1.6-0.5-3.3-0.5-5c0-1.8-2.7-1.8-2.7,0C256,317.4,256.1,319.3,256.6,321.2 M274.4,383
			c0.1,0.7,0.6,1.2,1.3,1.2c0.7,0,1.4-0.7,1.3-1.4c0-1.4-1.1-2.5-2.5-2.5c-0.7,0-1.3,0.6-1.3,1.4C273.2,382.4,273.8,382.9,274.4,383
			 M283.4,304.4c1.4,0.5,2.9,0.9,4,2c1.2,1.2,3.1-0.7,1.9-1.9c-1.4-1.4-3.3-2.1-5.2-2.7C282.4,301.2,281.8,303.8,283.4,304.4
			 M289.4,357.5c0.4,0.7,1.2,0.8,1.8,0.5c0.9-0.4,1.8-0.4,2.8-0.4c1.7,0,1.7-2.7,0-2.7c-1.4,0-2.8,0.1-4.1,0.8
			C289.3,356,289.1,357,289.4,357.5 M292.9,422.1c0.7,0,1.3-0.6,1.3-1.4c0-0.7-0.5-1.2-1.2-1.3c-0.1-0.7-0.6-1.2-1.3-1.2
			c-0.7,0-1.4,0.7-1.3,1.4C290.5,420.9,291.5,422,292.9,422.1 M51.2,432.4c0.5-1.7,1.5-3,2.3-4.5c0.3-0.5,0.4-0.8,0.5-1.2
			c0.2,0.4,0.6,0.7,1.1,0.7c1.1,0,2.3-0.1,3.3,0.4c0.7,0.3,1.4,0.2,1.8-0.5c0.3-0.6,0.2-1.6-0.5-1.9c-1.5-0.7-3.1-0.8-4.7-0.8
			c-0.4,0-0.7,0.2-0.9,0.4c-0.6-8.7-0.6-17.4,0-26c0.6-9.3,2-18.4,3.5-27.5c0.7-4.4,1.7-8.9,1.5-13.4c-0.2-4.5-2-8.7-0.7-13.2
			c0.5-1.8,1.4-3.5,2-5.2c0.6-1.9,0.6-3.8,0.3-5.8c-0.6-4.1-1.6-8.1,0-12c0.7-1.8,1.8-3.3,2.4-5.1c0.7-2.3,0.6-4.7,0.7-7.1
			c0.2-4.7,0.3-9.5,0.7-14.2c0.2-2.1,0.5-4.1,1.4-6c0.8-1.9,2-3.6,2.5-5.5c0.5-1.9,0.6-4,0.9-6c0.3-2.1,0.8-4.2,1.4-6.2
			c2.4-7.8,6.9-14.8,12.2-20.9c5.6-6.5,12.3-11.3,19.4-15.9c3.7-2.4,7.5-4.8,11.2-7.2c0.1,0.4,0.4,0.9,0.9,1c1.4,0.5,2.9,0.9,4,2
			c1.2,1.2,3.1-0.7,1.9-1.9c-1.3-1.3-2.9-1.9-4.6-2.5c1.7-1.1,3.4-2.3,5.3-2.9c1.7-0.6,4.2-0.1,5.5-1.3c1.1-1,1.4-2.9,1.8-4.2
			c0.5-1.7,1-3.5,1.6-5.1c0.4-1.1,1.1-2.2,1.9-3.1c0.4-1.4,1-2.7,2.2-3.5c3-2.1,6.8,0,8.1,2.9c1.1,0,2.3,0.2,3.3,0.3
			c2.2,0.1,4.4,0.2,6.6,0.2c4.3,0,8.7-0.3,12.9-0.9c7.7-1.1,15.1-3.2,22.7-4.9c0-0.1,0.1-0.2,0.2-0.3c1.6-2.8,5.7-2.3,8.2-1.3
			c1.1,0.5,2.2,1,2.8,2.1c0.7,0.5,1.2,1,1.6,1.6c0.8,1.2,1.4,3.7,3,3.9c1.1,0.1,2.1-0.1,3.2,0.1c1.3,0.2,2.5,0.7,3.8,1.2
			c9.4,4.2,19.2,8.9,29.4,10.5c2.4,0.4,4.8,0.8,6.9,2.2c1.7,1.1,3,2.7,4.4,4.1c1.4,1.4,2.5,2.1,4.4,2.3c2.4,0.3,4.4,1,6.1,2.7
			c1.4,1.5,2.4,3.3,3.5,5c1.1,1.7,2.8,2.7,4.6,3.7c4.1,2.4,7.9,5.3,11.3,8.7c7,7.3,11.3,16.7,15.6,25.8c4.6,9.9,9,19.9,12,30.4
			c2.9,10.4,4.7,21,5.5,31.8c0.9,11.3,1,22.6,1.7,33.9c0.4,5.6,0.6,11.3,0.9,16.9c0.3,5.6,0.7,11.2,0.6,16.7
			c-0.1,10.8-2.2,21.6-5.9,31.7c-0.9,2.5-1.9,5-3,7.4c-0.9,2.1-4.2,1.9-5.2,0c-0.2-0.4-0.4-0.9-0.6-1.3c-2.7,0-5.3-0.2-8,0.1
			c-4.7,0.4-9.3,0.7-14,1c-9.2,0.6-18.5,1-27.7,1.5c-0.9,0.1-1.8,0.1-2.7,0.2c6.6-21,5.7-43.8,6.8-65.6c0.1-1.8-2.6-1.8-2.7,0
			c-1,22-0.2,44.8-7,65.8c-2.6,0.2-5.3,0.4-7.9,0.7c-2.1,0.3-4.3,0.6-6.4,0.5c-2.4-0.1-4.8-0.7-7.2-1.2c-4.3-0.9-8.5-0.5-12.8,0.1
			c-4.6,0.6-9.3,0.9-14,1.1c-18.7,0.8-37.5,1.6-56.2,0.3c-4.5-0.3-9-0.8-13.5-1.3c-4.6-0.6-9.2-1.6-13.8-2.2
			c-4.6-0.6-8.8,1-13.3,1.3c-4.6,0.3-9.3-0.7-13.9-1.3c-1.5-0.2-3-0.4-4.5-0.5c1.9-13.5,3-27.2,4.1-40.8c0.1-1.8-2.5-1.7-2.7,0
			c-1,13.5-2.1,27.1-4,40.5c-7.9-0.9-15.8-1.9-23.6-3.4c-2.2-0.4-4.4-1.1-5.8-3.1C50.9,436,50.7,434.2,51.2,432.4"/>
		<path class="st0" d="M110.8,145.3c0.7-6.5-0.2-20-0.3-20.8c-0.4-5.2,2-25.7,6.4-23.8c7.5-6.1,17.4-7.5,26.8-8.1
			c19.4-1.3,39.9,1.7,54.9,15.2c7.4,7,14.6,17.1,14,27.7c6.7,10,16.2,23.8,7.8,35.5c-2.8,3.7-7.4,5.1-10.9,8
			c-7.2,6-11.7,14.6-18.9,20.5c-19.2,17.8-51.9,21.5-70.7,1.3c-14.6-14.7-12.2-36.6-9.7-55.3C111.8,132.7,109.4,157.9,110.8,145.3z"
			/>
		<path class="st1" d="M169.6,65.2c-5.2-1.1-10.5-1.7-15.8-1.5l-0.4,0c-4,0.2-9,0.5-12.5,2.9c-0.2-0.2-0.5-0.3-0.8-0.2
			c-4.1,2-8.7,3.5-13,5c-4.3,1.5-8.8,2.4-13.3,2.8c-1.7,0.1-3.2,2-2.1,3.7c0.3,0.4,0.5,0.8,0.8,1.2c-0.4,0-0.8-0.1-1.2-0.1
			c-1.4-0.1-2.7,1.4-2.7,2.7c0.1,0.9,0.1,1.7,0.3,2.6c-0.5,0-1,0.1-1.5,0.3c-2.5,1.1-2.4,4.2-2.2,6.6c0.3,3.3,1.5,6.8,3.7,9.2
			c-1.7,1.8-2.8,3.9-3.5,6.4c-0.5,1.8-0.8,3.8-0.7,5.7l0,0.6c0.2,2.1,0.5,4.4,2,5.9c0.7,0.8,1.7,1,2.5,1c-0.5,4.8-0.9,9.6-1.2,14.4
			l-0.1,2.3c-0.7,11.1-1.2,22.2-1.1,33.3c0.1,10.4,2.1,20.4,8.3,28.8c5.6,7.7,13.7,13.3,22.8,15.5c4.9,1.2,9.9,1.2,14.9,0.5
			c2.4-0.4,4.8-0.9,7.1-1.8c2.5-1,4.4-2.4,6.1-4.5c0.8-1,0.4-3.2-1.2-3c-2.4,0.3-4.6,0.7-7,1.4l-0.3,0.1c-2.3,0.8-4.7,1.3-7.1,1.6
			c-5,0.5-10,0-14.8-1.6c-7.7-2.5-14.4-8.2-18.7-15.3c-5.1-8.4-5.6-17.9-5.6-27.6c0.1-10.6,0.4-21.2,1-31.8l0.1-1.8
			c0.3-5.5,0.6-10.9,0.8-16.4c0.1-1.7,0.2-3.4,0.4-5.1c1.9-1.2,3.6-2.8,4.7-4.7c2.2,1,4.6,1.6,6.8,2.2c5,1.3,10.3,1.6,15.4,0.8
			c1.4,0.6,2.8,1.1,4.2,1.6c0.4,0.2,0.8,0.4,1.2,0.5c3.5,1.5,6.9,2.8,10.6,3.8l0.9,0.2c1.9,0.5,4,1,6,1.1c0.3,0.1,0.7,0.2,1.1,0.3
			c1.9,0.5,3.8,0.6,5.7,0.4c1.9-0.2,3.2-2.1,2.2-3.9c-0.7-1.3-1.5-2.6-2.3-4c2.6,1.1,5.4,2.1,8.1,2.9c2.8,0.8,5.6,1.5,8.4,2.1
			c1.5,0.3,3,0.6,4.5,1c1.1,0.2,2.7,0.4,3.6,1.1c1,0.8,1.2,2.7,1.6,3.8c0.5,1.5,0.9,3,1.4,4.5c0.8,3,1.5,6.1,2,9.3
			c0.5,3.1,0.9,6.3,1.1,9.4c0.2,3.2,0.1,6.3,0.4,9.5c0.2,1.7,1.9,2.5,3.2,1.4c0.2-0.1,0.3-0.3,0.5-0.4l0.2-0.2c1.1-1,2.2-2.1,3-3.3
			c0.2-0.2,0.3-0.5,0.5-0.7c0,0,0,0,0.1,0l0.2-0.2c2.7-2.1,7.2-4.7,9.8-1.3c0.8,1.1,1.3,2.5,1.6,3.8l0.6,2.4c0.4,1.6,0.8,3.1,1,4.7
			c0.5,3.6,0.2,7.7-2.1,10.6c-1,1.1-2.3,2-3.7,2.2c-0.8,0.1-1.6,0-2.4-0.1c-0.8-0.1-1.6,0.1-2.4,0c-1.3-0.1-1.9,1.5-1.4,2.5
			c0.3,0.5,0.6,1,0.9,1.4c-0.3,0.3-0.6,0.5-0.8,0.8c-0.8,0.3-1.5,0.8-2,1.5c-0.4,0.6-0.6,1.2-0.7,1.9c0,0.2-0.1,0.3-0.1,0.5
			l-0.7,1.2c-0.2,0.3-0.3,0.5-0.5,0.8c-1.8,2.9-3.8,5.4-6.3,7.8c-2.4,2.3-5,4.3-7.3,6.7l-0.3,0.3c-2.1,2.3-4.3,5.1-3.5,8.4
			c0.2,0.9,1.4,1.5,2.1,0.9c2.4-1.9,3.7-4.8,5.7-7.1c2.1-2.3,4.5-4.4,6.6-6.7c2-2.2,3.6-4.7,4.8-7.4c0.5,0.5,1.2,0.9,2.1,1.1
			c1.7,0.3,3.2-0.7,3.9-2.2c0.5,0.2,0.9,0.4,1.4,0.6c2.5,0.8,4.1-2.1,3.1-4.2c-0.5-1.1-1.1-2.1-1.9-3c2.5-0.3,5-1.7,6.6-3.3
			c4.1-4.1,4.6-10.3,3.7-15.8c-0.5-2.9-1.3-5.9-2.4-8.6c-0.2-0.5-0.4-1-0.6-1.4c0.1,0,0.2-0.1,0.3-0.2c0.7-1,1.6-1.9,2.2-3
			c0.5-1.1,1.1-2.1,1.5-3.2c0.8-2.3,1.2-4.8,1.5-7.2c0.5-4.9,0.3-9.8-0.4-14.6c-1.2-8.3-4.2-16.2-8.6-23.2c0.2-0.1,0.5-0.3,0.7-0.5
			l0.1-0.1l0.2-0.2c1.3-1.2,1.1-3.4,0-4.6l-0.4-0.4c-0.5-0.5-0.9-0.8-1.6-1.4c-0.1-0.1-0.2-0.1-0.3-0.2c0.4-0.7,0.5-1.6,0.3-2.6
			c-0.9-3.3-5.6-3.2-8.5-1.8c-3.3-3-6.9-5.6-10.8-7.7C190.3,70.8,179.8,67.3,169.6,65.2z M217.7,152.7c-1.7-0.6-4,0.6-5.6,1.4
			c-2,0.9-3.7,2.3-5.3,3.8c-0.8,0.7-1,1.9-0.8,3c0,0.1,0,0.2,0.1,0.3c0.2,1.1,1.4,1.9,2.4,1.9c2.2-0.1,3.2-2,4.5-3.7
			c0.1,0.3,0.3,0.5,0.6,0.7l0.2,0.1c0.5,0.4,1.1,0.7,1.8,0.7c0.5,0,0.9-0.2,1.4-0.4c1.1-0.6,1.5-2,1.2-3.1c-0.2-0.7-0.6-1.3-1.1-1.7
			l0.2-0.1c0.4-0.3,0.8-0.6,1.1-1.1l0.1-0.1h0C218.6,153.7,218.4,152.9,217.7,152.7z"/>
		<path class="st1" d="M135.8,187.1c2.4,0.7,5.1,0.8,7.6,0c2.3-0.7,4.6-2.2,6.2-4.2c1.5-1.8,2.4-3.9,2.4-6.2c0-0.3-0.1-0.5-0.2-0.7
			c-0.2-0.2-0.4-0.3-0.6-0.4c-0.2-0.1-0.5,0-0.7,0.1c-0.2,0.1-0.4,0.2-0.5,0.5c-0.3,0.3-0.5,0.7-0.8,1c-2.1,2.6-4,4.6-7.1,5.3
			c-1.7,0.4-3.3,0.2-4.9-0.4c-1.6-0.6-3.1-1.7-4.3-3.1c-0.5-0.6-1.1-0.9-1.8-0.9c-0.7,0-1.4,0.3-1.9,0.9c-0.5,0.5-0.8,1.2-0.9,2
			c0,0.6,0.2,1.3,0.7,1.9C131,184.9,133.3,186.4,135.8,187.1z M135.9,154.3c-2.5,1.6-6.3,5.2-3.6,9.1c3.2,3.4,7.7-0.5,10-2.3
			c2.1-1.4,4.4,2.2,2.5,3.8c-16.3,12.4-22.9-10.2-10.1-12.5C136,152.3,136.5,153.9,135.9,154.3z M159.3,147.4
			c0.8-0.5,1.8-0.7,2.8-0.2c0.8,0.4,2.3,1.7,3.3,3.4c0.7,1.2,1.2,2.5,1.1,3.9c0,0.3,0.1,0.6,0.3,0.7c0.1,0.1,0.4,0.2,0.6,0.3
			c0.2,0,0.4,0,0.6-0.1c0.4-0.1,0.6-0.4,0.6-0.6c0.7-1.9,0.4-4.1-0.4-6c-1.1-2.6-3-4.8-4.2-5.5c-2.2-1.2-4.7-1.3-6.9,0
			c-1.8,1-3,2.7-4.1,4.5c-0.2,0.4-0.5,0.7-0.7,1.1c-0.5,0.7-0.6,1.4-0.4,2c0.2,0.7,0.8,1.2,1.4,1.5c0.6,0.3,1.4,0.3,2,0
			c0.5-0.2,1.1-0.7,1.4-1.5C157.2,149.7,158.1,148.2,159.3,147.4L159.3,147.4z M118.4,150.4c0.6,0.3,1,0.4,1.6,0.2
			c0.3-0.1,0.7-0.3,0.9-0.6c0.3-0.3,0.4-0.6,0.5-1c0.2-0.9,0.7-1.8,1.3-2.3c0.6-0.5,1.3-0.7,2.2-0.6c0.9,0.2,1.7,0.7,2.3,1.4
			c0.2,0.2,0.3,0.5,0.5,0.8c0.3,0.5,0.6,0.9,1,1.3c0.2,0.1,0.4,0.2,0.6,0.2c0.1,0,0.2,0,0.3,0c0.9-0.9,1.1-1.6,1-2.3
			c0-0.7-0.3-1.5-0.8-2.1c-1-1.6-3-2.9-4.4-3.2c-1.8-0.4-3.7,0.1-5.1,1.1c-1.5,1.1-2.6,2.8-3,4.7c-0.1,0.5,0,1,0.1,1.4
			C117.7,149.8,118,150.2,118.4,150.4z M155.3,130.4c1.1,1.1,2.4,1.3,3.7,1.4c0.7,0.1,1.3,0.2,1.9,0.3c1.6,0.4,3.1,0.9,4.6,1.7
			c1.5,0.8,3.1,1.8,4.3,3.1c0.3,0.3,0.5,0.6,0.8,1c0.2,0.3,0.5,0.6,0.7,0.9c0.3,0.3,0.5,0.6,0.8,1c0.2,0.3,0.2,0.3,0.2,0.4
			c0,0.1,0.1,0.2,0.2,0.4c0.1,0.2,0.2,0.4,0.3,0.5c0.2,0.3,0.3,0.4,0.4,0.4c0.1,0.1,0.3,0.1,0.4,0.1c0.1,0,0.2-0.1,0.4-0.2
			c0.6-0.5,0.7-1.3,0.7-2.2c0-1.3-0.5-2.7-0.9-3.6c-1-2.1-2.4-4.2-4.1-5.7c-1.9-1.8-4-3.1-6.4-4c-1.5-0.6-3.2-1.1-4.8-1
			c-1.2,0-2.3,0.4-3.2,1.3c-0.6,0.5-0.8,1.3-0.8,2.1C154.4,129,154.7,129.8,155.3,130.4z M116.2,140.5c0.1,0.1,0.2,0.2,0.3,0.2
			c0.1,0.1,0.2,0.1,0.4,0c0.1,0,0.2-0.1,0.3-0.2c0.1-0.1,0.2-0.2,0.2-0.3c0.7-3.3,2.2-5.8,5.2-7.4c1.5-0.8,3.2-1.3,4.8-1.7
			c0.5-0.1,1-0.2,1.5-0.3c1.6-0.2,3.2-0.5,4.2-1.8c0.6-0.8,0.9-1.8,0.7-2.7c-0.1-0.9-0.6-1.7-1.5-2.1c-2.2-1.2-5,0-7.3,1
			c-0.2,0.1-0.3,0.1-0.5,0.2c-2.2,1-4.2,2.2-5.9,4c-1.3,1.4-2.5,3.6-3,5.7C115.2,137.1,115.3,139,116.2,140.5z"/>
		<path class="st1" d="M128.9,192.6c3.1-2.8,6.5-8.5,11-4c1.1,1.3,1.5,4.1,3.2,4.7c2.2,0.7,4.4-1.7,5.2-3.6
			c3.1-10.4-9.7-13.2-17.1-11.5c-3.6,1.5-6.2,7.6-6.4,10.8C124.7,191.1,126.5,194.3,128.9,192.6 M105.6,176.6c0-0.1,0.1-0.3,0.1-0.4
			c1.4-0.5,2.4,0,3.1,1c0,0.3-0.1,0.5-0.1,0.8c0.5,1.1,1,2.5,1.7,3.5c0.1,0,0.3,0,0.4,0c11.6,1.2,5.9-11.2,17.7-14.4
			c9.1-1.5,25.5,0.2,29.8,10c3.4,15.6,20.5,4.7,26.2-3.4c6-7.4,9.9-16.4,13.7-25.1c0.8-1.8,3.3-0.5,3,1.2c3.5,7.2,3.4,15.8,4.2,23.6
			c1.5,15.7,2.9,37.7-11.2,47.2c-18.4,21.5-64.3,29-85.6,9.3C101.1,213.8,102,193.9,105.6,176.6"/>
		<path class="st1" d="M117.6,128.9c-7.8,0-12.2,1.7-13.9,1.9l0,0c-0.7,0-1.3,0.1-1.9,0.4c-2.3,0.9-2.7,3.5-1.4,5.1
			c0.1,3.3-0.3,7.2,0.4,10.5c0.9,14,7.3,16.3,10.9,17.2c1.8,0.4,4,0.6,5.9,0.1c3.3-0.1,6.6-1.2,9.3-3c3.9-2.6,6.8-6.6,7.7-11.3
			c0.4-2.2,0.7-4.6,0.4-6.9l0-0.3c1.3-0.6,2.7-0.7,4.2-0.8c0.7,0,1.4-0.1,2.1,0c0.7,0.1,1.3,0.2,2,0.3c0.7,0.2,1.4,0.6,2.1,1.2
			l0,0.9c0.1,2.2,0.4,4.3,0.8,6.5c0.6,3.1,1.6,6.1,3.8,8.3c0.7,1.1,1.6,2.1,2.7,3c4,3.2,9.4,4.3,14.3,3.9c10-0.9,15.8-9.1,17.2-12.6
			l0.1-0.2c1-2.6,1.7-6,4.8-6.6l0.7-0.1c1.4-0.3,2.7-0.6,3.5-2c0.4-0.6,0.5-1.3,0.6-2c0.5,0,1,0.1,1.4,0.1
			c3.8,0.8,26.5,1.5,28.3,1.5c0,0,3.5,1.5,5,0.3c1-0.8,1.4-1.9,0.8-3.1c-0.8-1.9-4.8-3-6.5-3.3c0,0-28,0.2-30-0.2
			c-1.2-1.3-3.5-1.1-5.3-1.4c-1.5-1.1-3.7-1.9-5.4-2.4c-0.3-0.1-0.7-0.3-1-0.4c-3.1-1.1-6.4-1.8-9.7-2.1c-3.4-0.3-6.8-0.2-10.2,0.3
			c-1.4,0.2-2.8,0.5-4.2,0.8c-2.5,0.3-5,0.9-7.5,1.6l-0.5,0.1c-2.6,0.7-5.4,1.3-8.1,0.8c-2.2-0.4-4.4-1.3-6.4-2.2l-0.3-0.1
			C129.8,130.5,122.7,128.9,117.6,128.9z M157.4,136.7c1.7-0.4,2.4,2.3,0.7,2.6c-1.2,0.3-2.2,0.9-2.9,1.9l-0.1,0.1
			c-0.9,1.5-3.2,0.1-2.3-1.4C153.9,138.3,155.5,137.1,157.4,136.7z M108.6,135c0.6-0.4,1.5-0.1,1.8,0.5c0.4,0.7,0.1,1.4-0.4,1.8
			l-0.1,0c-0.5,0.4-1,1-1.1,1.7l0,0.1c-0.1,1.8-2.7,1.8-2.7,0C106.3,137.5,107.2,136,108.6,135z"/>
		<path class="st0" d="M521.3,276.4c-2.9-11.6-5.5-16.5-10.7-20.5c-4.8-3.8-11.8-6.9-22-9.2c-10.7-1.9-11-7.6-13.6-16.8
			c-0.8-2.8-4.6-3.5-6.3-1.5c-0.2-0.3-0.5-0.5-0.7-0.7c0.2-1.3-1.6-5.1-1.6-6.3c0.6-13.1-3.5-19.7-13.9-22.2
			c-2.3-0.5-17.6-0.8-19.8-0.2c-9.6,2.7-19.1,11.5-17.7,22c-3,4.1-6,6.6-10.7,7.9c-10.4,1.4-20.8,2.6-31.2,3.6
			c-20.3,3.3-39.4,14.4-52.5,30.6c-1.2,1.5-1.5,3.5-0.5,5.1c-0.8,3.7-5.5,12.6-1.8,15.1c-6.1,14.9-20,43.8-20,52.1
			c-0.1,34.7,3.5,79.8,36.7,98.9c1.3,1.3,1.5,2.8,2.1,4.8c1.5,6.3,6.8,10.8,12.5,10.4c28.5,0.7,56.2-2.9,84.7-3.1
			c12.6-0.1,27.7,1.9,38.7,3.2s22,0.1,32.5-3.2c0.9,1.4,2.7,2.3,4.5,1.9c10.9-2.2,19.7-9.1,27.3-16.7c2.3-4.4,11.5-16.9,7.8-21.3
			c3.3-14.4,3.1-29.8-2.7-43.5c0.8-2.5-0.7-5.3,0-7.9c0.5-1.9,1.8-2.6,2.4-4.5c0.9-2.6-0.1-6.1-1.1-8.8c-0.4-1.3,0.8-2.8,1.1-4.1
			c1.5-6.4-2-5.8-4.6-10.1c0,0,0.7-3.1,0.7-3c0.4-2.2-0.6-5-1.4-6.8c-0.6-1.2-1.8-2-3-1.9c1.2-4.3,2.8-7.9,4.5-12.1
			c3-7.4,6.8-14.4,11-21.1c1.8-2.7-0.6-5.9-3.4-6.1C539.4,279.9,530.3,278.5,521.3,276.4z"/>
		<path class="st1" d="M494.6,332.1c-3.7-1.5-7.6-2.3-11.6-2.6c2.1-0.4,4.3-0.8,6.4-0.9c1.5-0.1,2.9-0.1,4,1.1
			c0.8,0.8,1.1,1.8,1.6,2.7C494.9,332.3,494.7,332.2,494.6,332.1z M534,318.3c-6,0.3-12,1.8-17.5,4.5c-2.2,1.1-4.2,2.7-4.8,5.3
			c-0.3,1.3-0.2,2.7-0.1,4c0.1,1,0.1,2.3,1,3c0.1,0.1,0.3,0.2,0.5,0.3c-2,0.9-3.9,2.1-5.6,3.2c-1.6,1.1-3.1,2.7-3.9,4.5
			c-0.1-0.2-0.1-0.4-0.2-0.6c-1.2-3.7-3.1-6.8-6.1-8.8c0.5-0.2,0.9-0.8,0.7-1.6c-0.7-3.3-3.7-6.2-7-6c-3.7,0.2-7.6,1.6-10.9,3.3
			c-1.2,0-2.4,0-3.6,0c-0.2,0-0.2,0.3,0,0.3c1,0.1,1.9,0.3,2.9,0.4c2.3,0.4,4.6,0.9,6.8,1.5c2.7,0.7,5.5,1.4,8,2.7
			c4.9,2.4,7.9,8.8,7.3,14.4c-0.1,0.9-0.4,3.7-1.7,3.4c-1-0.2-1.4-2.5-1.8-3.3c-1-2.2-2.7-3.6-4.8-4.6c-2.5-1.1-5.1-1.9-7.6-2.8
			c-1.4-0.5-2.9-1-4.3-1.5c-1.5-0.5-2.9-1.2-4.5-0.9c-1,0.2-1.1,1.4-0.5,2.1c0.8,1,2,1.3,3.2,1.7c1.5,0.6,3.1,1.1,4.6,1.7
			c2.4,0.9,4.9,1.6,7.2,2.6l-0.1,0.2c-0.2-0.1-0.4,0.1-0.4,0.4c0.3,2.2,0.8,4.8,0.3,7c-0.4,1.8-1.9,3.7-3.9,3.2
			c0.3-0.3,0.4-0.8,0.2-1.2c-0.8-1.7-10.8-8.4-11.7-5.9c0,0.1,0.1,0.2,0.1,0.1c0.8-0.2,2.1,1.2,2.7,1.6c0.9,0.6,1.8,1.2,2.7,1.9
			c1,0.7,1.9,1.4,2.8,2.2c0.7,0.6,1.3,1.2,2.1,1.5c-0.4,0.2-0.8,0.6-0.9,1.1c-0.4,1.3-1.1,2.4-2.3,3c-1.3,0.6-2.8,0.2-4.1,0.4
			c-1.9,0.2-3.5,1.1-4.9,2.4c-2.9,2.8-4.3,7.6-8.3,8.9c-2.4,0.8-5,0.3-7.5-0.1c-2.7-0.4-5.3-0.7-8.1-0.3c-2.6,0.4-5.1,1.3-7.4,2.5
			c-2.2,1.1-4.7,2.3-6.7,3.9c-0.4-1.3-0.8-2.6-1.1-3.9c-0.7-3.1-1.1-6.3-1.2-9.5c-0.1-3.1,0.1-6.1,0.3-9.2c0.1-1.5,0.3-3,0.5-4.6
			c0-0.4,0.1-0.8,0.2-1.2c3.5-2.2,7.2-3.8,11-5.5c0,0,0,0,0,0c0.1-0.1,0.2-0.1,0.3-0.2c0,0,0,0,0,0c0.4-0.3,0.7-0.6,0.9-1
			c5.4-3.7,9.9-8.7,13.3-14.6c1.4-2.5,2.8-5,4.6-7.2c2-2.3,4.3-3.7,7.2-4.4c3.4-0.8,6.8-1.3,10.3-1.6c1.9-0.2,4-0.4,6.1-0.4
			c1.4,0,2.8,0.1,4.1,0.5c1.9,0.5,3,2,4.2,3.5c1.1,1.5,2.3,2.9,3.3,4.4c1,1.4,2,2.9,2.8,4.5c0.5,0.9,1,1.9,1.3,2.9
			c0.1,0.3,0.3,0.7,0.4,1.1c0.1,0.4-0.1,0.8,0.3,0.8c-1.6,0-1.6,2.7,0,2.6c6.4-0.4-2.8-13.2-4.1-15c-1.9-2.5-3.8-5.8-6.9-7
			c0,0-0.1,0-0.1,0c0.9-0.9,1.6-1.9,2.2-2.9c0.7-1.1,1.5-2.3,1.7-3.6c0.1-0.8-0.8-1.3-1.3-0.6c-0.7,1-1,2.4-1.5,3.5
			c-0.5,1.2-1.1,2.3-1.6,3.4c-1.2-0.4-2.5-0.6-3.8-0.6c1.7-2.3,4.5-6.8,4.8-7.4c1.6-2.7,3.1-5.4,4.5-8.2c1.5-3,2.9-6.1,4.3-9.1
			c0.8-1.7,1.7-3.4,2.6-5.1c0.3-0.6,0.7-1.1,1.1-1.7c0.1-0.1,0.2-0.2,0.3-0.3c0.1-0.1,0.2-0.1,0.3-0.2c0.5-0.3,0.7-1.1,1.1-1.5
			c0.6-0.8,1.3-0.8,2.2-0.9c1.9,0,3.9,0.1,5.8,0.1c2.8,0.1,5.7,0.2,8.5,0.4c0.9,0,1.7,0.1,2.6,0.2c4.1,0.3,8.3,0.6,12.4,1
			c3.6,0.4,7.3,0.9,10.9,1.2c-4.9,12.1-10.4,24-16.6,35.4C534,318,534,318.1,534,318.3z M506.6,349.4c-0.8,0.4-1.6,0.8-2.3,1.4
			c0.1-0.8,0.1-1.7,0.1-2.6C505,348.9,505.8,349.2,506.6,349.4z M540.6,328.6c-0.1,0-0.1,0-0.1,0.1c-1.1,2.3-0.6,5,1.2,6.8
			c0.9,1,3,2,2.9,3.6c-0.1,1.3-1.4,2.3-2,3.4c-0.5,1-0.7,2.1-0.3,3.1c0.5,1.4,2.1,1.9,2.6,3.2c0.7,1.7-0.4,3.7-1.2,5.2
			c-0.7,1.4-1.6,2.7-2.2,4.2c-4,2.2-7.7,5.5-10.8,8.8c-3.4,3.7-6.3,8-11.7,7.9c-0.5,0-1,0.3-1.2,0.7c-1.5,0.1-3,0.1-4.5,0.1
			c-2.6,0-5.3,0-7.9-0.1c-0.2-0.7,0-1.6-0.1-2.1c0-1.8,0-3.6-0.1-5.4c0-0.5,0-1-0.1-1.5c1,1.8,2.8,2.6,4.9,2.5
			c3.4-0.2,6.8-0.8,10.2-1.3c1.8-0.3,3.5-0.6,5.3-0.9c1.5-0.3,3.5-0.2,4.5-1.4c0.2-0.3,0.3-0.8-0.1-1c-1-0.5-1.6-0.2-2.7,0
			c-1.3,0.3-2.7,0.5-4,0.8c-2.6,0.5-5.2,0.9-7.8,1.3c-1.5,0.2-3,0.4-4.5,0.6c-1.3,0.1-2.8,0.3-3.8-0.7c-2.1-2-0.9-5.5,0.4-7.5
			c0,0,0-0.1,0-0.1c1.3-0.3,2.5-0.7,3.8-0.9c2.4-0.5,4.8-0.9,7.3-1.2c5-0.7,10-1.2,15-1.7c1.2-0.1,1.3-2.1,0-2
			c-7.2,0.7-14.5,1.3-21.6,2.8c-1.8,0.4-3.6,0.8-5.3,1.2c-0.8,0.2-1.7,0.5-2.6,0.6c-0.1,0-0.1,0-0.2,0c-1.7-0.1-2-1.6-1-2.8
			c0.1-0.2,0.2-0.3,0.4-0.5c1.7-2,3.7-3.4,5.9-4.8c2.4-0.3,4.8-1.1,7.1-1.6c5.8-1.4,11.5-2.7,17.3-4.1c1.1-0.3,0.7-2.1-0.5-1.8
			c-4.4,1-8.8,2-13.1,3.1l-6.4,1.5c-1.3,0.3-2.9,0.9-4.4,1.1c-0.7,0.1-1.5,0.1-2.1,0c-2.1-0.5-2.2-3.2-1.3-4.8c1-1.8,2.9-2.9,4.6-4
			c2.9-1.8,6.1-3.1,9.1-4.5c0.5-0.1,1.1-0.2,1.6-0.4c3.2-0.7,6.8-1.1,9.8-2.4c0.9-0.4,0.4-1.8-0.5-1.8c-2.3,0.1-4.7,0.9-7,1.4
			c-2.4,0.5-4.9,1.1-7.3,1.6c-0.2,0.1-1.7,0.5-1.9,0.4c-0.1-0.1-0.2-0.6-0.2-0.9c-0.1-1.1-0.3-2.2-0.1-3.3c0.4-2.4,2.3-3.6,4.3-4.5
			c4.4-2.1,9.3-3.4,14.1-3.9c1.1-0.1,2.2-0.2,3.3-0.2c1.3,0,2.4-0.3,3.1,1.1C539.6,323.5,540.2,326.2,540.6,328.6z M534.4,405
			c-1-3.4-0.7-7.1-1.4-10.6c-0.3-1.8-0.8-3.6-1.3-5.4c-0.4-1.4-1.1-2.9-1.2-4.4c0-0.1,0.1-0.2,0.2-0.1c1.4,0.8,2.4,2.5,3.2,3.9
			c0.9,1.6,1.6,3.3,2.2,5.1c1.1,3.6,2.1,7.9,0.6,11.5C536.3,406.1,534.8,406.3,534.4,405z M504.6,359.4c0.8-0.1,1.6-0.2,2.4-0.4
			c-0.9,0.9-1.8,2-2.2,3.2C504.7,361.3,504.6,360.3,504.6,359.4C504.5,359.4,504.6,359.4,504.6,359.4z M496.7,431.1
			c-1.4-1-2.5-2.5-3.7-3.8c-1.2-1.3,0.7-3.2,1.9-1.9c1,1.1,1.9,2.5,3.2,3.3c0.6,0.4,0.9,1.2,0.5,1.9
			C498.2,431.2,497.3,431.5,496.7,431.1z M488.7,391.3c2.6-1.2,5.2-2.4,8-3.3c1.6-0.5,2.3,2.1,0.7,2.6c-2.5,0.8-4.9,1.9-7.3,3
			C488.5,394.3,487.1,392,488.7,391.3z M461,390.5c-0.6-1.6,1.9-2.3,2.6-0.7c0.7,1.9,1.6,3.7,2.3,5.5c0.6,1.6-1.9,2.3-2.6,0.7
			C462.5,394.1,461.7,392.3,461,390.5z M433.6,423.1c-0.4,0.6-1.1,0.9-1.8,0.5c-0.6-0.3-0.9-1.3-0.5-1.9c1.3-1.7,2.5-3.5,4-5
			c1.2-1.3,3.1,0.7,1.9,1.9C435.9,420,434.7,421.6,433.6,423.1z M429.7,240c1.2,0.9,2.3,1.9,3.3,3c1.2,1.2-0.7,3.2-1.9,1.9
			c-0.9-0.9-1.8-1.8-2.8-2.5c-0.6-0.4-0.9-1.2-0.5-1.9C428.2,239.8,429.1,239.5,429.7,240z M469.5,284c-0.7,1.4-1.3,2.8-1.3,4.4
			c0,1.8-2.7,1.8-2.7,0c0.1-2.1,0.8-4,1.7-5.8C468,281,470.3,282.4,469.5,284z M484.1,248.6c1.4-1,2.8,1.4,1.3,2.4
			c-1.1,0.8-2.3,1.6-3.4,2.4c-1.4,1-2.8-1.4-1.3-2.4C481.8,250.2,483,249.4,484.1,248.6z M420.7,310.5c-0.2,1.7-2.8,1-2.6-0.7
			c0.4-2.7,0.8-5.3,1.5-7.9c0.5-1.7,3-1,2.6,0.7C421.6,305.2,421.1,307.8,420.7,310.5z M411.4,341.8c-1.7,0-1.7-2.8,0-2.7
			c1.5,0,3.1,0.5,4.6,0.8c1.7,0.4,0.9,3.1-0.7,2.6C414,342.2,412.8,341.8,411.4,341.8z M408,405c-0.6,0.3-1.2,0.6-1.8,0.8
			c-1.2,0.6-2.4,1.1-3.6,1.7c-2.5,1.2-4.9,2.3-7.4,3.5c-4.9,2.4-9.9,4.6-14.9,7c-5,2.4-10.1,4.8-15.1,7.2c-2.4,1.1-4.8,2.2-7.1,3.4
			c-2,0.9-4.6,2.6-6.8,2.8c-0.1,0-0.2-0.1-0.1-0.2c0.8-1,2.2-1.6,3.3-2.2c1.1-0.7,2.3-1.3,3.4-1.9c2.4-1.3,4.8-2.6,7.2-3.9
			c4.8-2.5,9.7-5,14.6-7.5c5-2.6,9.9-5.1,14.9-7.6c2.4-1.2,4.7-2.3,7.1-3.5c1.3-0.6,2.6-1.2,3.8-1.9c0.6-0.3,1.1-0.6,1.7-0.8
			c0.7-0.3,1.3-0.3,2.1-0.5c1.3-0.3,1.8,1.3,0.8,2.1C409.3,404,408.9,404.5,408,405z M390.3,433c-0.3-0.7,0.3-1.5,0.9-1.7
			c0.8-0.2,1.4,0.3,1.6,1c0.7,1.8,1.8,3.5,3.1,4.9c1.2,1.3-0.7,3.2-1.9,1.9C392.4,437.4,391.2,435.3,390.3,433z M377.3,389.1
			c-1.2-1.2,0.7-3.2,1.9-1.9l3.4,3.5c1.2,1.2-0.7,3.2-1.9,1.9L377.3,389.1z M342,383.3c-2.5,0.7-5.4,1.4-7,3.6
			c-0.1,0.1-0.2,0-0.2-0.1c2.2-4.6,8.3-6.2,12.6-7.8c3-1.1,6.1-2.1,9.3-2.9c-0.3-3.7,0.6-7.6,0.9-11.3c0.3-3.9,0.6-7.8,0.7-11.8
			c0.1-4,0.2-8,0-12.1c-0.1-4-0.6-7.9-0.8-11.9c0-0.4,0.5-0.4,0.6-0.1c1.3,3.7,1.9,7.8,2.3,11.7c0.4,4,0.6,8,0.5,12.1
			c-0.1,4.2-0.3,8.3-0.6,12.4c-0.2,2-0.3,3.9-0.5,5.9c-0.1,1.5-0.2,3-0.5,4.4c1.9-0.5,3.8-0.9,5.7-1.4c6-1.4,12.1-2.7,18.1-4.2
			c2.9-0.7,5.8-1.6,8.8-2.4c2.8-0.7,5.7-1.6,8.5-2c1-0.1,1.1,1.3,0.5,1.8c-2.3,1.7-5.4,2.8-8,3.8c-2.7,0.9-5.4,1.6-8.2,2.3
			c-5.7,1.4-11.5,2.6-17.2,3.9c-5.7,1.2-11.5,2.5-17.2,4C347.4,381.8,344.7,382.5,342,383.3z M328.5,310.1c-1.5,0.9-2.8-1.5-1.3-2.4
			c1.9-1.2,4-2,6-2.9c1.6-0.7,2.3,2,0.7,2.6C332,308.3,330.2,309.1,328.5,310.1z M323.1,411.8c-1.5,0.9-2.8-1.5-1.3-2.4
			c2.1-1.2,4.3-2.1,6.5-3.2c1.5-0.8,2.9,1.6,1.3,2.4C327.5,409.7,325.2,410.5,323.1,411.8z M320.7,354.1c1.4,1.4,3.3,2.1,5.1,2.8
			c1.6,0.6,0.9,3.3-0.7,2.6c-2.2-0.9-4.5-1.8-6.3-3.5C317.6,354.8,319.5,352.8,320.7,354.1z M336.5,275.7c1.6,0.6,0.9,3.3-0.7,2.6
			c-1.8-0.7-3.6-1.3-5.3-2c-1.6-0.6-0.9-3.3,0.7-2.6C333,274.4,334.8,275,336.5,275.7z M364.5,244.6c1.7-0.3,2.4,2.3,0.7,2.6
			c-2.1,0.4-4.1,0.8-6.1,1.6c-1.6,0.6-2.3-2-0.7-2.6C360.4,245.3,362.4,244.9,364.5,244.6z M373.7,320.4c-1.5-0.8-0.2-3.1,1.3-2.4
			c1.6,0.8,3.3,1.4,5,1.8c1.7,0.4,1,3-0.7,2.6C377.4,322,375.5,321.3,373.7,320.4z M382.4,277.7c1.7-0.5,2.4,2.2,0.7,2.6
			c-2.9,0.8-5.9,1.2-8.8,2c-1.7,0.4-2.4-2.2-0.7-2.6C376.6,278.9,379.6,278.5,382.4,277.7z M419.4,264.3c1.7,0.3,1,3-0.7,2.6
			c-1.8-0.3-3.6-0.3-5.4-0.3c-1.7,0-1.7-2.7,0-2.7C415.4,263.8,417.4,263.9,419.4,264.3z M540.1,278.6c-4.3-0.4-8.7-0.8-13-1
			c-0.2,0-0.4,0-0.6,0c0,0-0.1-0.1-0.1-0.1c-1.4-2.1-2.5-4.3-3.4-6.7c-0.9-2.3-1.7-4.7-3-6.8c-1.5-2.4-3.6-4.2-5.8-5.8
			c-1.4,0.9-2.6,2.1-3.8,3.2c-1.2,1.2-3.1-0.7-1.9-1.9c1-1,2.1-2,3.3-2.9c-1.3-0.8-2.7-1.6-4-2.4c-5-2.9-10.1-5.7-15.4-8.2
			c-2.4-1.2-4.9-2.2-7.4-3.2c-1.3-0.6-2.6-1.3-4-1.9c0.1-1-0.2-2.1-0.9-2.7c-0.5-0.5-0.9-0.6-1.6-1c-0.1-0.1-0.2-0.1-0.3-0.1
			c0,0,0.1,0,0.3,0.1c0.3,0.2,0.4,0.1,0.1-0.1c0-0.6-1.1-1.7-1.3-2.3c-0.8-2-1.1-4-2.3-5.8c-1.7-2.5-4.6-3.4-7.3-2.6
			c-0.3-3-0.4-6-1.4-8.7c0-0.1-0.1-0.1-0.2,0c-1.1,2-1.2,4.2-1.3,6.5c-0.1,2.1,0,4.3,0.3,6.5c-0.2,0.1-0.3,0.3-0.5,0.4
			c-0.9,0.6-1.8,1-2.7,1.4c-1.8,0.6-3.8,0.9-5.7,1c-5,0.2-10.1-0.3-15-1.2c-5-0.9-12.6-2.2-17-4.8c-2.9-1.7-5.6-3.8-8.3-5.7
			c1-3.3,1.2-6.8,0.2-9.6c-0.1-0.3-0.6-0.4-0.7,0c-0.6,2.6-0.8,5.3-1.6,7.9c0,0,0,0.1,0,0.1c-0.3-0.2-0.5-0.4-0.8-0.5
			c-0.6-0.4-1.4-0.1-1.8,0.5c-5.7,9.3-14.8,9.8-24.3,11.5c-10.4,1.8-20.9,3.8-30.9,7.3c-9.6,3.4-18.7,8.4-26,15.8
			c-1.6,1.7-3.2,3.5-4.6,5.3c1.4,0.2,2.8,0.5,4.2,0.9c1.6,0.5,0.9,3.2-0.7,2.6c-1.8-0.6-3.6-0.9-5.4-1c-4.9,7-8.8,14.8-12.1,22.6
			c-6.4,14.9-10.5,30.7-12.4,46.9c1-0.6,2.1-1.3,3.2-1.8c1.5-0.8,2.9,1.6,1.3,2.4c-1.7,0.9-3.3,1.9-4.9,2.9
			c-0.7,7.1-1,14.2-0.8,21.3c0.4,16.9,2.6,34.3,7.6,50.5c2.5,7.9,5.7,15.8,10.6,22.5c2.2,3,4.7,5.8,7.6,8.1c1.4,1.1,2.9,2.1,4.5,2.9
			c2,1.1,4.7,1.4,6.5,3c0.6,0.5,1,1.2,1.4,1.9c-0.2,1.4-0.2,2.8,0.2,4.3c0.1,0.4,0.4,0.8,0.8,1c0,0.1,0,0.2,0,0.4
			c0,0.1,0.1,0.1,0.1,0c0-0.1,0-0.2,0.1-0.3c0.1,0,0.3,0.1,0.4,0.1c5,0,10.1-0.1,15.1-0.3c-0.4-1.2-0.8-2.5-1.2-3.7
			c-0.6-1.7,2-2.4,2.6-0.7c0.5,1.4,1,2.9,1.4,4.3c5.4-0.2,10.8-0.5,16.2-0.6c11.5-0.4,22.9-0.5,34.4-0.8c17.8-0.4,35.8-1.2,53.6-0.4
			c0.6-1.4,1.3-2.7,2-4c0.8-1.6,3.1-0.2,2.3,1.4c-0.5,0.9-0.9,1.8-1.4,2.8c3.6,0.2,7.2,0.5,10.8,0.8c6.1,0.6,12.2,1.7,18.4,2.3
			c6.2,0.7,12.4,0.6,18.5-0.5c1.1-0.2,1.8-0.9,2-1.7c0,0,0,0,0,0c0.3-0.4,0.6-0.7,0.9-1c0.4-0.2,0.8-0.5,1.2-0.6
			c0.9-0.3,1.8-0.6,2.7-0.7c1-0.2,2-0.2,3.1-0.3c0.9-0.1,1.7-0.3,2.5-0.5c1.5-0.4,2.9-0.9,4.3-1.5c1.2-0.6,2.4-1.4,3.4-2.2
			c2.2-1.6,4.1-3.7,5.7-5.9c1-1.3,1.9-2.6,2.7-4c1.4-2.4,2.7-4.9,3.9-7.4c0.4-0.7,0.9-1.5,1.2-2.3c-2.4-0.7-4.8-1.3-7.4-1.4
			c-1.7,0-1.7-2.8,0-2.7c2.9,0,5.7,0.8,8.5,1.6c0.1-0.4,0.3-0.7,0.4-1.1c0.3-0.8,0.6-1.6,0.8-2.4c0.1-0.4,0.3-0.7,0.4-1.1
			c0.3-1.3,0.6-2.6,0.9-3.8c0.6-2.1,1.1-4.1,1.4-6.2c0.3-1.4,0.5-2.8,0.7-4.2c0.5-3.4,0.8-6.9,0.9-10.3c0-2.1-0.2-4.3-0.4-6.4
			c-0.1-1.4-0.3-2.9-0.5-4.3c-0.3-2.1-0.6-4.2-1-6.3c-0.4-1.4-0.7-2.8-1.1-4.2c-0.9-3-1.9-5.8-3.1-8.7c-0.1-0.2-0.4-0.6-0.6-0.6
			c-0.2,0-0.4,0.1-0.3,0.3c0,0,0,0,0,0.1c-0.1-0.2-0.1-0.3-0.2-0.5c-0.1-0.2-0.3-0.5-0.5-0.4c0,0,0,0,0,0c0,0,0.1-0.1,0.1-0.1
			c1.2-1.5,2-3.4,2.8-5.1c0.7-1.4,1.4-2.9,1.6-4.4c0.2-1.4-0.1-2.7-0.9-3.9c-1-1.3-2.8-1.9-1.8-3.7c1.1-2.1,2.8-3.9,1.1-6.3
			c-0.8-1.2-2.2-1.9-3.2-2.9c-1.1-1.2-1.7-2.8-1.7-4.5c0.1,0,0.2,0,0.2-0.1c1-3,0.3-6.3-0.7-9.2c-0.5-1.6-1.7-2-3-2.1
			c5.7-11.5,11.1-23.3,15.9-35.3c0.2-0.4,0.3-0.8,0.5-1.2c0.2-0.6-0.3-1.4-0.8-1.5C548.6,279.3,544.3,279,540.1,278.6z"/>
		<path class="st0" d="M492.3,135.6c-0.8-10.5,0.4-21.5-3.5-31.5c-6.9-16.6-26.1-22.1-41-28.4c-6-1.8-26.1-2.1-33-4.5
			c-15.8-5.4-19.6-11.9-32.2-1.6c-2.1,1.8-3.4,3.7-4.4,6.3l0,0c-0.3,1.1,0,2.2,0.6,3c-5.4,5.7-7.7,14.4-4.9,22
			c9.1,19.9,8.7,30.7,5.8,52.1c-3.8,20,4.9,27.3,19.5,38.1c-0.6,1.2-0.7,2.8,0.1,3.8c16.8,24.4,48.5,36,75.6,23.6
			c11-5.1,15.9-17.2,18.7-28.1c3.3-12.2,4.3-25.1,1.6-37.6C494.1,147.1,492.7,141.4,492.3,135.6z"/>
		<path class="st1" d="M395.4,19.1c2-0.3,3.6,1,4.3,2.8l0,0.1c0.2,0.6,0.5,1.2,0.8,1.8c5.1-2.6,12.4-1.9,15.6,3.3
			c2.3,3.7,0.9,8.2,0,12.1l-0.6,2.6c1.1,0.7,1.9,2,1.9,3.4l0,0.1l-0.2,3.6c0.7-0.8,1.4-1.6,2-2.5c0.4-0.8,0.9-1.6,1.3-2.3
			c2.8-4.4,9.2-0.6,6.8,4.1c-0.4,0.9-0.9,1.8-1.5,2.6c-0.6,1.2-1.1,2.5-1.5,3.8c1.1,0.5,2,1.6,2,3.3c0.2,3.9-1.8,7.1-4.9,9.2
			c-0.9,0.6-1.9,0.7-2.7,0.5c-0.2,0.2-0.3,0.4-0.5,0.6c1.3,1,2.4,2.2,3.4,3.6c2.9-0.5,5.9-0.7,8.8-0.7c3.6-1.8,7.9-1.8,11.8-1.1
			c2.5,0.4,4.9,1.3,7.3,1.9c2.6,0.6,5.2,0.7,7.8,1.1c3.3,0.6,6.2,2.1,8,4.6c2,0.1,4.1,0.9,5.8,2c4,2.7,8.1,5.4,12.1,8
			c1.5,1,2.1,2.7,1.8,4.5l0,0.1l-0.1,0.8l0.3,0.5c1.2,1.8,2.6,3.7,3.4,5.7c1.5,2.2,2.8,4.5,4,6.9c1.6,3.2,2.9,6.6,3.8,10.1
			c0.2,0.9,0.4,1.8,0.6,2.7c0.2,1.3-0.1,2.2-0.3,3.5c-0.2,1.5-0.3,3.1-0.5,4.6c-0.2,1-1,1.5-1.9,1.6c0.3,2.6,0.6,5.2,0.8,7.8
			c0.3,3.7,0.5,7.4,0.7,11.2c1,1.5,3,2.6,4.4,3c2,0.6,4.1,0,6-0.8c1.2-0.4,2.2,1.1,1.6,2.1c-1.8,3.2-5.7,3.2-8.6,1.8
			c-1.2-0.6-2.3-1.5-3.1-2.6c0.1,1.1,0.1,2.2,0.2,3.2l0,1c0.6,11.5,1.9,23.3-0.2,34.7c-3.6,19.7-19.4,34.7-38.7,35.8
			c-10.1,0.6-18.5-2.5-22.7-4.2c-4.2-1.7-2.6-5.2,0.3-4.2c5,1.7,14.2,4.3,22.4,3.2c19.4-2.6,35.9-12.6,34.2-55.7
			c-0.2-6.1-1-12.2-1.1-18.3c-0.2-6-0.1-12-0.4-17.9l-0.1-2c-0.1-2.4-0.2-4.8-0.4-7.2c-0.2-0.9-0.4-1.9-0.6-2.8
			c-0.7-2.5-1.6-4.9-2.7-7.2c-0.2,0.2-0.5,0.3-0.8,0.4c-2.3,0.4-4.4,0.3-6.6-0.7c-1-0.5-1.9-1.1-2.7-1.8c-0.4-0.4-0.7-0.7-0.9-1
			c-1,0-2.1-0.3-2.7-1.1c-0.7-0.9-0.9-1.8-0.6-2.6l0-0.1l-0.1,0c-0.9,2.3-2.6,4.4-4.5,5.8c-3,2.2-6.8,2.8-10.4,2.9
			c-4,0.1-8.2-0.6-12.2-1.2c-1-0.2-2.1-0.4-3.1-0.6c0,0-0.1,0.1-0.1,0.1c-3.4,3.3-8.2,4.2-12.5,2.3c-2.5-1.1-4.6-2.9-6.4-4.9
			c0,1.1-0.1,2.1-0.2,3.2l0,0.4c-0.2,2-0.5,4.1-2,5.5c-2.3,2.3-5.7,1.4-8.4-0.1c0,0.1,0,0.1,0,0.2c0.7,2.5,1.5,5.1,2.2,7.6l0.2,0.5
			c0.5,1.8,1.1,3.6,1.3,5.5c0.3,3.6-2,7.2-5.9,6c-2-0.6-3.7-2.4-5.3-3.8l-1-0.9c2.6,8.6,4.3,17.6,4.5,26.6c0,0.5-0.4,0.9-0.8,0.9
			c-1.1,0-2.2-0.2-3.2-0.6c-0.1,0-0.1,0-0.2,0c-1.8-0.3-3.5-0.9-5-1.9c0.3,1.1,0.5,2.3,0.4,3.6c0,0.3-0.5,0.4-0.6,0.1
			c-0.9-4.3-5.8-7.6-10-6.8c-4.6,0.9-7.9,4.9-8.7,9.5c-0.9,4.9,0.8,10.7,3.9,14.5c1.4,1.8,3.3,3.2,5.6,3.6c1,0.2,2.1,0.1,3.1-0.2
			c0.4-0.1,0.8-0.3,1.2-0.5c0.6-0.2,1.3-0.3,1.8-0.5c1.3-0.6,2.5,0.6,1.9,2c-0.6,1.2-1.1,2-2,2.6c0.8,0.9,1.4,2.3,1.7,2.6
			c1.3,1.8,2.6,3.5,4.1,5.1c1.5,1.7,3.1,3.2,4.8,4.6l0.7,0.6c1.7,1.4,3.1,2.6,4.3,4.6c0.9,1.5-0.3,3.6-2,3.6
			c-5.4-0.1-9.3-5-12.1-9.3c-0.4-0.6-0.8-1.3-1.1-1.9c-0.1,0.2-0.3,0.4-0.4,0.6l0.3,0.9c0.9,2.5-3,4.2-4.2,1.8
			c-0.8-1.7-1.8-3.3-2.9-4.9c-0.6-0.1-1.3-0.5-1.6-1c-0.9-1.3-1.8-2.6-2.7-4c-0.5-0.4-0.9-0.9-1.4-1.3c-0.1,0.1-0.3,0.3-0.4,0.4
			c-0.6,1.4-1.3,2.7-2.3,3.9l-0.2,0.3c-1.8,2.3-4.1,4.7-6.9,5.2c-0.9,0.2-1.7-0.9-0.9-1.7c2-1.9,4.4-3.1,6.2-5.2
			c0.9-1,1.7-2.1,2.5-3.3l0.2-0.3c0.1-0.2,0.2-0.4,0.4-0.6c-0.8-0.6-1.7-1.2-2.5-1.8c-2.3,2-5.3,2.9-7.8,4.6l-0.3,0.2
			c-2.3,1.6-4.7-1.9-2.9-3.8c2-2.1,3.7-4.6,5.5-7c-0.8-1.6-1.2-3.5-1.4-5.4c-0.1-0.5-0.1-1.1-0.2-1.6c-1.3,0-2.6-0.4-3.7-1.2
			L368,168c-1.3,0.4-2.7,0.6-4.1,0.6c-3.1-0.1-4.4-3.8-2.5-6.1c2-2.4,5.5-2.9,8.3-1.8c0.1,0,0.2-0.1,0.3-0.1c-0.1-0.6-0.1-1.2,0-1.7
			l0-0.3c-0.6-1-1-2.1-1.2-3.2c-0.1-0.9-0.1-1.8,0.1-2.8c0.1-0.3,0.2-0.6,0.3-0.9c-0.2-0.6-0.4-1.2-0.4-1.8
			c-0.1-0.1-0.1-0.2-0.2-0.2c-1.4-2-1.1-4.4,0.2-6c0-0.1,0-0.2,0-0.3c-0.1-0.2-0.1-0.4-0.2-0.5c-1.3-1.3-2.2-2.9-2.1-4.9
			c0.1-1.2,0.6-2.2,1.3-3c-0.1-0.4-0.1-0.8,0-1.2c-1.1-3.1-1-6.8-0.2-10.3c-0.2-0.5-0.3-1.1-0.3-1.7c0.1-2.6,2.2-4.9,4.8-4.9
			c0.3,0,0.6,0,0.9,0.1l0-0.1c0.1-0.8,0.3-1.5,0.6-2.1c-0.1-0.1-0.3-0.1-0.4-0.2c-1.6,0.9-3.4,1.6-5.2,2.1c-1.3,0.3-2.7-1.2-1.9-2.5
			c0.4-0.6,0.8-1.1,1.3-1.6c-0.7,0-1.3,0-2,0.1c-1.2,0.2-2.5-0.7-3.3-1.8c-1,1-1.9,1.9-2.9,2.9c-2.5,2.5-6.2,0.7-6.6-2.6
			c-0.7-0.2-1.4-0.5-2-1c-3.9,1.7-8.1,2.7-12.3,2.9c-3.1,0.1-4.9-3.6-3.4-6.2c1-1.7,2.2-3.3,3.5-4.7c-2.1,0.7-4.3,1.2-6.6,1.5
			c-1.2,0.2-2.9-0.9-3.4-2c-1.9-4.4-1.7-9.1,0.4-13.4c0.1-0.2,0.2-0.3,0.3-0.5c0.2-0.6,0.5-1.1,0.7-1.7c-2.6-2.8-2.9-7.1-1.4-10.6
			c-0.6-1-0.8-2.1-0.4-3.1c1.1-3,2.7-5.8,4.7-8.1c-0.2-0.4-0.4-0.8-0.5-1.2c-1.1-3.5,0.2-7.8,2.8-10.3c1.7-1.6,3.6-2.5,5.6-3.1
			c0.9-1.6,2-3,3.2-4.2c0.1-0.1,0.1-0.2,0.2-0.3c2-3.9,5.6-6,9.6-6.5c0.2-1.5,1.1-3,2.6-3.4c0.4-1.3,1-2.6,1.8-3.7
			c1.3-1.8,3.4-2.6,5.4-1.5c1.1,0.6,2.2,1.4,3.1,2.2c0.4-0.2,0.9-0.4,1.5-0.4l0.1,0l3.3-0.2c1.4-0.6,2.7-1.3,4.1-1.9
			c0.8-0.7,1.7-1.3,2.7-1.7c1.1-0.5,2.3-0.8,3.5-0.9c0.9-0.3,1.9-0.6,2.9-0.8c2.3-0.5,4.7-0.8,7-0.8c0-0.6,0.1-1.3,0.1-1.9l0-0.3
			C391.9,21,393.5,19.3,395.4,19.1z M393.1,184.6c-0.3,0.1-0.7,0.1-1,0.2c0.1,0.3,0.2,0.5,0.3,0.8c0.3,0.2,0.5,0.3,0.8,0.4
			C393.1,185.5,393.1,185.1,393.1,184.6z M376.1,179.4l-0.2,0.4c0,0.1-0.1,0.1-0.1,0.2c0.5,0,0.9,0,1.4,0l0-0.1
			c-0.1,0-0.1,0-0.2-0.1C376.6,179.8,376.3,179.6,376.1,179.4z M385.3,160.3c2.9,0.2,5.4,0.6,8.1,2l0.2,0.1c2.4,1.2,6.3,3.4,5.9,6.6
			c-0.1,0.9-0.7,1.9-1.7,1.8c-2.8-0.2-4.3-3.1-6.2-4.9c-1.9-1.8-4.2-3.7-6.5-4.9C384.7,160.9,384.9,160.3,385.3,160.3L385.3,160.3z
			 M372,118.2c-0.7,0-0.5,0.7-0.1,0.1C371.9,118.3,371.9,118.2,372,118.2z M409.9,71.1c-6.7,0.2-13.4,4.2-18.3,8.3
			c-4.3,3.6-8.1,7.8-11.4,12.4c-0.9,2.3-1.6,4.6-2.2,6.9c-0.4,1.5-0.7,3.1-1,4.7l-0.1,0.5c-0.3,0.5-0.5,1.1-0.6,1.6
			c0.6,0.6,1.4,1.1,2.3,1.3c0.3,0.1,0.5,0.2,0.7,0.4c0.7-1.2,1.3-2.5,1.7-3.8l0-0.1c1.3-2.3,2.8-4.4,4.3-6.6
			c4.3-5.8,9-11.1,14.7-15.6c4.3-3.4,9.1-6,14.2-7.7C412.9,72.6,411.4,71.7,409.9,71.1z"/>
		<path class="st1" d="M469.9,198c-2.4,0.7-5.1,0.8-7.6,0c-2.3-0.7-4.6-2.2-6.2-4.2c-1.5-1.8-2.4-3.9-2.4-6.2c0-0.3,0.1-0.5,0.2-0.7
			c0.2-0.2,0.4-0.3,0.6-0.4c0.2-0.1,0.5,0,0.7,0.1c0.2,0.1,0.4,0.2,0.5,0.5c0.3,0.3,0.5,0.7,0.8,1c2.1,2.6,4,4.6,7.1,5.3
			c1.7,0.4,3.3,0.2,4.9-0.4c1.6-0.6,3.1-1.7,4.3-3.1c0.5-0.6,1.1-0.9,1.8-0.9c0.7,0,1.4,0.3,1.9,0.9c0.5,0.5,0.8,1.2,0.9,2
			c0,0.6-0.2,1.3-0.7,1.9C474.8,195.8,472.4,197.2,469.9,198z M469.8,165.2c2.5,1.6,6.3,5.2,3.6,9.1c-3.2,3.4-7.7-0.5-10-2.3
			c-2.1-1.4-4.4,2.2-2.5,3.8c16.3,12.4,22.9-10.2,10.1-12.5C469.7,163.1,469.2,164.7,469.8,165.2z M446.4,158.3
			c-0.8-0.5-1.8-0.7-2.8-0.2c-0.8,0.4-2.3,1.7-3.3,3.4c-0.7,1.2-1.2,2.5-1.1,3.9c0,0.3-0.1,0.6-0.3,0.7c-0.1,0.1-0.4,0.2-0.6,0.3
			c-0.2,0-0.4,0-0.6-0.1c-0.4-0.1-0.6-0.4-0.6-0.6c-0.7-1.9-0.4-4.1,0.4-6c1.1-2.6,3-4.8,4.2-5.5c2.2-1.2,4.7-1.3,6.9,0
			c1.8,1,3,2.7,4.1,4.5c0.2,0.4,0.5,0.7,0.7,1.1c0.5,0.7,0.6,1.4,0.4,2c-0.2,0.7-0.8,1.2-1.4,1.5c-0.6,0.3-1.4,0.3-2,0
			c-0.5-0.2-1.1-0.7-1.4-1.5C448.5,160.5,447.6,159.1,446.4,158.3L446.4,158.3z M487.3,161.2c-0.6,0.3-1,0.4-1.6,0.2
			c-0.3-0.1-0.7-0.3-0.9-0.6c-0.3-0.3-0.4-0.6-0.5-1c-0.2-0.9-0.7-1.8-1.3-2.3c-0.6-0.5-1.3-0.7-2.2-0.6c-0.9,0.2-1.7,0.7-2.3,1.4
			c-0.2,0.2-0.3,0.5-0.5,0.8c-0.3,0.5-0.6,0.9-1,1.3c-0.2,0.1-0.4,0.2-0.6,0.2c-0.1,0-0.2,0-0.3,0c-0.9-0.9-1.1-1.6-1-2.3
			c0-0.7,0.3-1.5,0.8-2.1c1-1.6,3-2.9,4.4-3.2c1.8-0.4,3.7,0.1,5.1,1.1c1.5,1.1,2.6,2.8,3,4.7c0.1,0.5,0,1-0.1,1.4
			C488,160.7,487.7,161,487.3,161.2z M450.5,141.2c-1.1,1.1-2.4,1.3-3.7,1.4c-0.7,0.1-1.3,0.2-1.9,0.3c-1.6,0.4-3.1,0.9-4.6,1.7
			c-1.5,0.8-3.1,1.8-4.3,3.1c-0.3,0.3-0.5,0.6-0.8,1c-0.2,0.3-0.5,0.6-0.7,0.9c-0.3,0.3-0.5,0.6-0.8,1c-0.2,0.3-0.2,0.3-0.2,0.4
			c0,0.1-0.1,0.2-0.2,0.4c-0.1,0.2-0.2,0.4-0.3,0.5c-0.2,0.3-0.3,0.4-0.4,0.4c-0.1,0.1-0.3,0.1-0.4,0.1c-0.1,0-0.2-0.1-0.4-0.2
			c-0.6-0.5-0.7-1.3-0.7-2.2c0-1.3,0.5-2.7,0.9-3.6c1-2.1,2.4-4.2,4.1-5.7c1.9-1.8,4-3.1,6.4-4c1.5-0.6,3.2-1.1,4.8-1
			c1.2,0,2.3,0.4,3.2,1.3c0.6,0.5,0.8,1.3,0.8,2.1C451.3,139.8,451,140.6,450.5,141.2z M489.5,151.4c-0.1,0.1-0.2,0.2-0.3,0.3
			c-0.1,0.1-0.2,0.1-0.4,0c-0.1,0-0.2-0.1-0.3-0.2c-0.1-0.1-0.2-0.2-0.2-0.3c-0.7-3.3-2.2-5.8-5.2-7.4c-1.5-0.8-3.2-1.3-4.8-1.7
			c-0.5-0.1-1-0.2-1.5-0.3c-1.6-0.2-3.2-0.5-4.2-1.8c-0.6-0.8-0.9-1.8-0.7-2.7c0.1-0.9,0.6-1.7,1.5-2.1c2.2-1.2,5,0,7.3,1
			c0.2,0.1,0.3,0.1,0.5,0.2c2.2,1,4.2,2.2,5.9,4c1.3,1.4,2.5,3.6,3,5.7C490.6,147.9,490.5,149.8,489.5,151.4z"/>
	</g>
</g>
</svg>
