<svg id="Calque_1" data-name="Calque 1" xmlns="http://www.w3.org/2000/svg" viewBox="0 0 595.28 282.99"><defs><style>.cls-1{fill:#fff;}.cls-2{font-size:82.41px;fill:#1d1d1b;font-family:Inter-ExtraBold, Inter;font-weight:800;}</style></defs><title>Plan de travail 1</title><path class="cls-1" d="M99.8,234.47c2.8,2.91,5.34,6.15,8.45,8.68,10.71,8.71,23.37,11.39,36.8,10.71,19.24-1,36.16-7.68,48.81-22.59,11.8-13.9,15.32-29.72,8.26-47.17a7.16,7.16,0,0,1-.22-3.07c2-27.36.55-54.38-7.66-80.77-.18-.58-.53-1.51-.28-1.75,3.28-3.18,1.6-6.91,1.11-10.42a3.49,3.49,0,0,1,1.46-3.65c1.38-1.24,3.13-3.39,2.89-4.86-.58-3.61,1.51-5.61,3.25-8a23.56,23.56,0,0,0,2.36-4.1c3.24-7.27,1.19-11.7-5.31-13.55-1-3.44-1.3-6.67-2.84-9.11-1.87-3-5.44-2.52-8.66-1.82,1.17-5.22,0-6.69-5.2-7q-10.26-.54-20.53-1.23a5.92,5.92,0,0,1-2-.7c-1.3-.57-2.53-1.51-3.89-1.75-18.06-3.18-36.2-4.51-54.47-2-14.77,2-29.29,5-42.58,12.49-3.09-3-6.44-6-11.3-3.75-4.37,2-3.5,6-3.22,9.55-6.4,3.43-7.65,7.8-3.76,13.7,1,1.54.79,2.42-.06,3.87-14.44,24.65-17.9,50.7-9.93,78.23a5.17,5.17,0,0,1-.7,3.28c-1.49,3-3.86,5.72-4.62,8.87-3.1,12.76-.07,24.2,8.68,34,1.15,1.28,1.6,2.14.8,3.79a28.15,28.15,0,0,0-2.1,5.94c-1.22,5.27,1.8,8.05,6.87,6.32,1.69-.58,2.49-.33,3.56,1.24,1.18,1.73,2.92,3.79,4.76,4.22,3,.7,6.28.19,9.47.19C62.32,217,66.89,222,71.62,227c1.28,1.34,2.92,2.8,4.61,3.17s4.25,0,5.36-1.11c.93-.93.75-3.53.27-5.15-.4-1.37-1.89-2.46-3-3.6C71.1,212.12,63.27,204,55.52,195.81c-.92-1-2.28-2.41-2.09-3.38.83-4.34-2-4.92-5-5.13-6-.44-9.9-3.69-11.82-9a64.92,64.92,0,0,1-3.52-14,15,15,0,0,1,4.95-13.46c4.35-3.86,9.76-3.44,13.43,1.05,1.26,1.53,2.19,3.31,3.34,4.94,2.09,3,6.1,3.53,10.67,1.35,3-1.42,2.46-4,1.88-6.59-1.08-4.73-2.18-9.45-3.19-14.19a5,5,0,0,1,0-3.05c2.59-5,5.35-10,7.82-14.51,1.16,1.3,2.11,3.23,3.51,3.64.9.26,2.68-1.55,3.67-2.76C87,111.2,93.85,101.13,98.37,90.5c2,1.37,3.76,3.38,5.83,3.78,3,.58,4.53-2.15,5.88-4.46,1.2-2.06,2.3-4.17,3.26-5.94,4.21,3.45,8.14,6.94,12.35,10.05,3.08,2.28,4.7,1.46,5.47-2.25.73-3.47,1.43-6.93,2.2-10.71,1.26.84,2.19,1.51,3.16,2.09,5.86,3.55,11.67,7.18,17.62,10.58,3.34,1.92,5.12.75,5.34-3.09.16-2.6.4-5.19.65-8.53,8.23,6.83,17.73,7.38,27.07,8,2.19,13.88,4.3,27.31,6.47,41-2.76-2.13-4.76-4-7.09-5.41-6-3.53-15.25-3.23-19.47.54-.74.65-1,1.89-1.4,2.86a9.36,9.36,0,0,0,2.9.43c7.08-1.36,12.89.48,17.35,6.34,2.63,3.45,3.92,3.62,8.49,1.21,0,4.29.12,8.17,0,12-.35,9.79-.22,19.66-1.5,29.34-.59,4.49.43,8.11,1.38,12.15s1.89,8.55,1.52,12.73c-1.29,14.61-8.6,25.79-21.5,32.66C149.46,249.17,124.75,248.75,99.8,234.47Zm50.71-27.64c.83.35,1.78.82,2.76,1.16,5.06,1.74,10,1.63,14.56-1.41,3.4-2.28,3.45-6.45.06-7.87-1.36-.57-3.36,0-5,.47-3.39,1-6.66,2.35-10.07,3.26-1.92.52-2.67-.77-3.46-2.63a77.82,77.82,0,0,0-5.92-11c-.79-1.25-2.41-2.16-3.81-.22,5.07,5.12,5.86,16,1.62,21.09-2.1,2.55-2,5.15.27,6.85,2.1,1.58,4.78.92,6.26-2A58.16,58.16,0,0,0,150.51,206.83Zm-19.71-77c0-4.09-2.47-6.22-6.24-6.44-7.62-.43-17.27,5.61-20.36,12.78a5.17,5.17,0,0,0-.69,2.4,32.16,32.16,0,0,0,1.17,4.35c1.19-.66,2.76-1,3.51-2,3.24-4.3,7.66-6,12.78-6.69a25.05,25.05,0,0,0,6.75-1.49C129.15,132.12,130.14,130.5,130.8,129.85Zm29.09,54c6.92.06,11.22-3.1,12.76-8.28,2-6.75-2-13.69-8.59-14.67-.94-.14-2,.6-3,.94a9.66,9.66,0,0,0,1.2,2.25c1.21,1.31,2.73,2.34,3.85,3.71,2.22,2.72,2.33,6.21.5,8.43-1.68,2-4.68,2.62-7.81,1.09a64.39,64.39,0,0,1-6.4-4c-1.74-1.12-3.54-.91-4.28.86-.51,1.24-.43,3.64.4,4.36C152.12,181.67,156.37,183.74,159.89,183.83Zm10.32-30,1.19.14c1-1.27,2-2.58,3.12-3.82,1.78-2,4-3.15,6.74-2.54s3.65,2.64,4.14,5.05c.09.41,0,1,.28,1.21,1.26,1.06,2.52,2.69,3.94,2.88,2.13.28,3.27-1.48,3.52-3.65.61-5.38-4.31-11.41-10.32-12.61-5.71-1.13-11.74,2.42-13,7.93C169.46,150.07,170.06,152,170.21,153.79Zm-56.36,4.53c.58-1.18,1-2.08,1.48-3,4.15-8.19,10.41-8.75,15.84-1.41,1.24,1.66,3,3.12,4.72,1.62,1.05-.93,1.53-3.48,1.1-5-1.39-4.77-7.83-8.46-13.42-8.18a12.77,12.77,0,0,0-11.29,9.17A6.52,6.52,0,0,0,113.85,158.32Zm-75,3.83c2.77-2.77,4.31-1.28,5.76.67,1.75,2.35,3.4,4.8,5.33,7,1.38,1.56,3.3,2,5.06.49s2.38-3.93.65-5.58a49.17,49.17,0,0,0-9.82-7.67C42.55,155.24,39.55,157.46,38.88,162.15Z"/><path d="M99.8,234.47c25,14.28,49.66,14.7,74.53,1.44,12.9-6.87,20.21-18,21.5-32.66.37-4.18-.55-8.58-1.52-12.73s-2-7.66-1.38-12.15c1.28-9.68,1.15-19.55,1.5-29.34.14-3.86,0-7.74,0-12-4.57,2.41-5.86,2.24-8.49-1.21-4.46-5.86-10.27-7.7-17.35-6.34a9.36,9.36,0,0,1-2.9-.43c.45-1,.66-2.21,1.4-2.86,4.22-3.77,13.44-4.07,19.47-.54,2.33,1.36,4.33,3.28,7.09,5.41-2.17-13.73-4.28-27.16-6.47-41-9.34-.59-18.84-1.14-27.07-8-.25,3.34-.49,5.93-.65,8.53-.22,3.84-2,5-5.34,3.09-5.95-3.4-11.76-7-17.62-10.58-1-.58-1.9-1.25-3.16-2.09-.77,3.78-1.47,7.24-2.2,10.71-.77,3.71-2.39,4.53-5.47,2.25-4.21-3.11-8.14-6.6-12.35-10.05-1,1.77-2.06,3.88-3.26,5.94-1.35,2.31-2.9,5-5.88,4.46-2.07-.4-3.82-2.41-5.83-3.78C93.85,101.13,87,111.2,79.19,120.69c-1,1.21-2.77,3-3.67,2.76-1.4-.41-2.35-2.34-3.51-3.64-2.47,4.53-5.23,9.47-7.82,14.51a5,5,0,0,0,0,3.05c1,4.74,2.11,9.46,3.19,14.19.58,2.55,1.13,5.17-1.88,6.59-4.57,2.18-8.58,1.61-10.67-1.35-1.15-1.63-2.08-3.41-3.34-4.94-3.67-4.49-9.08-4.91-13.43-1.05a15,15,0,0,0-4.95,13.46,64.92,64.92,0,0,0,3.52,14c1.92,5.35,5.82,8.6,11.82,9,2.93.21,5.79.79,5,5.13-.19,1,1.17,2.41,2.09,3.38,7.75,8.18,15.58,16.31,23.36,24.46,1.09,1.14,2.58,2.23,3,3.6.48,1.62.66,4.22-.27,5.15-1.11,1.11-3.66,1.47-5.36,1.11S72.9,228.3,71.62,227C66.89,222,62.32,217,58,212.32c-3.19,0-6.47.51-9.47-.19-1.84-.43-3.58-2.49-4.76-4.22-1.07-1.57-1.87-1.82-3.56-1.24-5.07,1.73-8.09-1-6.87-6.32a28.15,28.15,0,0,1,2.1-5.94c.8-1.65.35-2.51-.8-3.79-8.75-9.82-11.78-21.26-8.68-34,.76-3.15,3.13-5.88,4.62-8.87a5.17,5.17,0,0,0,.7-3.28c-8-27.53-4.51-53.58,9.93-78.23.85-1.45,1.07-2.33.06-3.87-3.89-5.9-2.64-10.27,3.76-13.7-.28-3.59-1.15-7.57,3.22-9.55,4.86-2.2,8.21.71,11.3,3.75C72.88,35.31,87.4,32.4,102.17,30.36c18.27-2.53,36.41-1.2,54.47,2,1.36.24,2.59,1.18,3.89,1.75a5.92,5.92,0,0,0,2,.7Q172.75,35.47,183,36c5.18.28,6.37,1.75,5.2,7,3.22-.7,6.79-1.16,8.66,1.82,1.54,2.44,1.83,5.67,2.84,9.11,6.5,1.85,8.55,6.28,5.31,13.55a23.56,23.56,0,0,1-2.36,4.1c-1.74,2.4-3.83,4.4-3.25,8,.24,1.47-1.51,3.62-2.89,4.86a3.49,3.49,0,0,0-1.46,3.65c.49,3.51,2.17,7.24-1.11,10.42-.25.24.1,1.17.28,1.75,8.21,26.39,9.65,53.41,7.66,80.77a7.16,7.16,0,0,0,.22,3.07c7.06,17.45,3.54,33.27-8.26,47.17-12.65,14.91-29.57,21.61-48.81,22.59-13.43.68-26.09-2-36.8-10.71C105.14,240.62,102.6,237.38,99.8,234.47Z"/><path d="M150.51,206.83a58.16,58.16,0,0,1-2.69,7.73c-1.48,2.93-4.16,3.59-6.26,2-2.27-1.7-2.37-4.3-.27-6.85,4.24-5.14,3.45-16-1.62-21.09,1.4-1.94,3-1,3.81.22a77.82,77.82,0,0,1,5.92,11c.79,1.86,1.54,3.15,3.46,2.63,3.41-.91,6.68-2.29,10.07-3.26,1.6-.46,3.6-1,5-.47,3.39,1.42,3.34,5.59-.06,7.87-4.54,3-9.5,3.15-14.56,1.41C152.29,207.65,151.34,207.18,150.51,206.83Z"/><path d="M130.8,129.85c-.66.65-1.65,2.27-3.08,2.87a25.05,25.05,0,0,1-6.75,1.49c-5.12.65-9.54,2.39-12.78,6.69-.75,1-2.32,1.38-3.51,2a32.16,32.16,0,0,1-1.17-4.35,5.17,5.17,0,0,1,.69-2.4c3.09-7.17,12.74-13.21,20.36-12.78C128.33,123.63,130.8,125.76,130.8,129.85Z"/><path d="M159.89,183.83c-3.52-.09-7.77-2.16-11.39-5.3-.83-.72-.91-3.12-.4-4.36.74-1.77,2.54-2,4.28-.86a64.39,64.39,0,0,0,6.4,4c3.13,1.53,6.13,1,7.81-1.09,1.83-2.22,1.72-5.71-.5-8.43-1.12-1.37-2.64-2.4-3.85-3.71a9.66,9.66,0,0,1-1.2-2.25c1-.34,2.08-1.08,3-.94,6.58,1,10.58,7.92,8.59,14.67C171.11,180.73,166.81,183.89,159.89,183.83Z"/><path d="M170.21,153.79c-.15-1.81-.75-3.72-.37-5.41,1.24-5.51,7.27-9.06,13-7.93,6,1.2,10.93,7.23,10.32,12.61-.25,2.17-1.39,3.93-3.52,3.65-1.42-.19-2.68-1.82-3.94-2.88-.25-.22-.19-.8-.28-1.21-.49-2.41-1.52-4.46-4.14-5.05s-5,.5-6.74,2.54c-1.09,1.24-2.09,2.55-3.12,3.82Z"/><path d="M113.85,158.32a6.52,6.52,0,0,1-1.57-6.74,12.77,12.77,0,0,1,11.29-9.17c5.59-.28,12,3.41,13.42,8.18.43,1.48-.05,4-1.1,5-1.7,1.5-3.48,0-4.72-1.62-5.43-7.34-11.69-6.78-15.84,1.41C114.88,156.24,114.43,157.14,113.85,158.32Z"/><path d="M38.88,162.15c.67-4.69,3.67-6.91,7-5.09a49.17,49.17,0,0,1,9.82,7.67c1.73,1.65,1.2,4-.65,5.58s-3.68,1.07-5.06-.49c-1.93-2.2-3.58-4.65-5.33-7C43.19,160.87,41.65,159.38,38.88,162.15Z"/><text class="cls-2" transform="translate(254.08 133.14) rotate(0.21)">Studio<tspan x="0" y="79.26">Raphaël</tspan></text></svg>